<?xml version="1.0" standalone="yes"?>

<svg version="1.1" viewBox="0.0 0.0 974.0 370.0" fill="none" stroke="none" stroke-linecap="square" stroke-miterlimit="10" xmlns="http://www.w3.org/2000/svg" xmlns:xlink="http://www.w3.org/1999/xlink"><clipPath id="p.0"><path d="m0 0l974.0 0l0 370.0l-974.0 0l0 -370.0z" clip-rule="nonzero"></path></clipPath><g clip-path="url(#p.0)"><path fill="#000000" fill-opacity="0.0" d="m0 0l974.5381 0l0 370.40683l-974.5381 0z" fill-rule="nonzero"></path><path fill="#000000" fill-opacity="0.0" d="m151.92513 203.26247l784.58466 0" fill-rule="nonzero"></path><path stroke="#d9d9d9" stroke-width="1.0" stroke-linejoin="round" stroke-linecap="butt" d="m151.92513 203.26247l784.58466 0" fill-rule="nonzero"></path><path fill="#000000" fill-opacity="0.0" d="m151.92513 150.4567l784.58466 0" fill-rule="nonzero"></path><path stroke="#d9d9d9" stroke-width="1.0" stroke-linejoin="round" stroke-linecap="butt" d="m151.92513 150.4567l784.58466 0" fill-rule="nonzero"></path><path fill="#000000" fill-opacity="0.0" d="m151.92513 253.53806l784.58466 0" fill-rule="nonzero"></path><path stroke="#d9d9d9" stroke-width="1.0" stroke-linejoin="round" stroke-linecap="butt" d="m151.92513 253.53806l784.58466 0" fill-rule="nonzero"></path><path fill="#000000" fill-opacity="0.0" d="m151.92513 314.20996l784.58466 0" fill-rule="nonzero"></path><path stroke="#d9d9d9" stroke-width="1.0" stroke-linejoin="round" stroke-linecap="butt" d="m151.92513 314.20996l784.58466 0" fill-rule="nonzero"></path><path fill="#000000" fill-opacity="0.0" d="m151.92513 93.02362l784.58466 0" fill-rule="nonzero"></path><path stroke="#d9d9d9" stroke-width="1.0" stroke-linejoin="round" stroke-linecap="butt" d="m151.92513 93.02362l784.58466 0" fill-rule="nonzero"></path><path fill="#000000" fill-opacity="0.0" d="m151.92513 37.02362l784.58466 0" fill-rule="nonzero"></path><path stroke="#d9d9d9" stroke-width="1.0" stroke-linejoin="round" stroke-linecap="butt" d="m151.92513 37.02362l784.58466 0" fill-rule="nonzero"></path><path fill="#000000" fill-opacity="0.0" d="m-0.98687667 191.08923l150.48819 0l0 24.346466l-150.48819 0z" fill-rule="nonzero"></path><path fill="#000000" d="m41.314865 209.42653l0 -1.25q-0.9375 1.46875 -2.75 1.46875q-1.171875 0 -2.171875 -0.640625q-0.984375 -0.65625 -1.53125 -1.8125q-0.53125 -1.171875 -0.53125 -2.6875q0 -1.46875 0.484375 -2.671875q0.5 -1.203125 1.46875 -1.84375q0.984375 -0.640625 2.203125 -0.640625q0.890625 0 1.578125 0.375q0.703125 0.375 1.140625 0.984375l0 -4.875l1.65625 0l0 13.59375l-1.546875 0zm-5.28125 -4.921875q0 1.890625 0.796875 2.828125q0.8125 0.9375 1.890625 0.9375q1.09375 0 1.859375 -0.890625q0.765625 -0.890625 0.765625 -2.734375q0 -2.015625 -0.78125 -2.953125q-0.78125 -0.953125 -1.921875 -0.953125q-1.109375 0 -1.859375 0.90625q-0.75 0.90625 -0.75 2.859375zm16.016342 1.75l1.71875 0.21875q-0.40625 1.5 -1.515625 2.34375q-1.09375 0.828125 -2.8125 0.828125q-2.15625 0 -3.421875 -1.328125q-1.265625 -1.328125 -1.265625 -3.734375q0 -2.484375 1.265625 -3.859375q1.28125 -1.375 3.328125 -1.375q1.984375 0 3.234375 1.34375q1.25 1.34375 1.25 3.796875q0 0.140625 -0.015625 0.4375l-7.34375 0q0.09375 1.625 0.921875 2.484375q0.828125 0.859375 2.0625 0.859375q0.90625 0 1.546875 -0.46875q0.65625 -0.484375 1.046875 -1.546875zm-5.484375 -2.703125l5.5 0q-0.109375 -1.234375 -0.625 -1.859375q-0.796875 -0.96875 -2.078125 -0.96875q-1.140625 0 -1.9375 0.78125q-0.78125 0.765625 -0.859375 2.046875zm11.844467 5.875l-3.75 -9.859375l1.765625 0l2.125 5.90625q0.34375 0.953125 0.625 1.984375q0.21875 -0.78125 0.625 -1.875l2.1875 -6.015625l1.71875 0l-3.734375 9.859375l-1.5625 0zm13.34375 -3.171875l1.71875 0.21875q-0.40625 1.5 -1.515625 2.34375q-1.09375 0.828125 -2.8125 0.828125q-2.15625 0 -3.421875 -1.328125q-1.265625 -1.328125 -1.265625 -3.734375q0 -2.484375 1.265625 -3.859375q1.28125 -1.375 3.328125 -1.375q1.984375 0 3.234375 1.34375q1.25 1.34375 1.25 3.796875q0 0.140625 -0.015625 0.4375l-7.34375 0q0.09375 1.625 0.921875 2.484375q0.828125 0.859375 2.0625 0.859375q0.90625 0 1.546875 -0.46875q0.65625 -0.484375 1.046875 -1.546875zm-5.484375 -2.703125l5.5 0q-0.109375 -1.234375 -0.625 -1.859375q-0.796875 -0.96875 -2.078125 -0.96875q-1.140625 0 -1.9375 0.78125q-0.78125 0.765625 -0.859375 2.046875zm9.078842 5.875l0 -13.59375l1.671875 0l0 13.59375l-1.671875 0zm3.5510712 -4.921875q0 -2.734375 1.53125 -4.0625q1.265625 -1.09375 3.09375 -1.09375q2.03125 0 3.3125 1.34375q1.296875 1.328125 1.296875 3.671875q0 1.90625 -0.578125 3.0q-0.5625 1.078125 -1.65625 1.6875q-1.078125 0.59375 -2.375 0.59375q-2.0625 0 -3.34375 -1.328125q-1.28125 -1.328125 -1.28125 -3.8125zm1.71875 0q0 1.890625 0.828125 2.828125q0.828125 0.9375 2.078125 0.9375q1.25 0 2.0625 -0.9375q0.828125 -0.953125 0.828125 -2.890625q0 -1.828125 -0.828125 -2.765625q-0.828125 -0.9375 -2.0625 -0.9375q-1.25 0 -2.078125 0.9375q-0.828125 0.9375 -0.828125 2.828125zm9.281967 8.703125l0 -13.640625l1.53125 0l0 1.28125q0.53125 -0.75 1.203125 -1.125q0.6875 -0.375 1.640625 -0.375q1.265625 0 2.234375 0.65625q0.96875 0.640625 1.453125 1.828125q0.5 1.1875 0.5 2.59375q0 1.515625 -0.546875 2.734375q-0.546875 1.203125 -1.578125 1.84375q-1.03125 0.640625 -2.171875 0.640625q-0.84375 0 -1.515625 -0.34375q-0.65625 -0.359375 -1.078125 -0.890625l0 4.796875l-1.671875 0zm1.515625 -8.65625q0 1.90625 0.765625 2.8125q0.78125 0.90625 1.875 0.90625q1.109375 0 1.890625 -0.9375q0.796875 -0.9375 0.796875 -2.921875q0 -1.875 -0.78125 -2.8125q-0.765625 -0.9375 -1.84375 -0.9375q-1.0625 0 -1.890625 1.0q-0.8125 1.0 -0.8125 2.890625zm8.860092 4.875l0 -9.859375l1.5 0l0 1.390625q0.453125 -0.71875 1.21875 -1.15625q0.78125 -0.453125 1.765625 -0.453125q1.09375 0 1.796875 0.453125q0.703125 0.453125 0.984375 1.28125q1.171875 -1.734375 3.046875 -1.734375q1.46875 0 2.25 0.8125q0.796875 0.8125 0.796875 2.5l0 6.765625l-1.671875 0l0 -6.203125q0 -1.0 -0.15625 -1.4375q-0.15625 -0.453125 -0.59375 -0.71875q-0.421875 -0.265625 -1.0 -0.265625q-1.03125 0 -1.71875 0.6875q-0.6875 0.6875 -0.6875 2.21875l0 5.71875l-1.671875 0l0 -6.40625q0 -1.109375 -0.40625 -1.65625q-0.40625 -0.5625 -1.34375 -0.5625q-0.703125 0 -1.3125 0.375q-0.59375 0.359375 -0.859375 1.078125q-0.265625 0.71875 -0.265625 2.0625l0 5.109375l-1.671875 0zm22.290802 -3.171875l1.71875 0.21875q-0.40625 1.5 -1.515625 2.34375q-1.09375 0.828125 -2.8125 0.828125q-2.15625 0 -3.421875 -1.328125q-1.265625 -1.328125 -1.265625 -3.734375q0 -2.484375 1.265625 -3.859375q1.28125 -1.375 3.328125 -1.375q1.984375 0 3.234375 1.34375q1.25 1.34375 1.25 3.796875q0 0.140625 -0.015625 0.4375l-7.34375 0q0.09375 1.625 0.921875 2.484375q0.828125 0.859375 2.0625 0.859375q0.90625 0 1.546875 -0.46875q0.65625 -0.484375 1.046875 -1.546875zm-5.484375 -2.703125l5.5 0q-0.109375 -1.234375 -0.625 -1.859375q-0.796875 -0.96875 -2.078125 -0.96875q-1.140625 0 -1.9375 0.78125q-0.78125 0.765625 -0.859375 2.046875zm9.110092 5.875l0 -9.859375l1.5 0l0 1.40625q1.09375 -1.625 3.140625 -1.625q0.890625 0 1.640625 0.328125q0.75 0.3125 1.109375 0.84375q0.375 0.515625 0.53125 1.21875q0.09375 0.46875 0.09375 1.625l0 6.0625l-1.671875 0l0 -6.0q0 -1.015625 -0.203125 -1.515625q-0.1875 -0.515625 -0.6875 -0.8125q-0.5 -0.296875 -1.171875 -0.296875q-1.0625 0 -1.84375 0.671875q-0.765625 0.671875 -0.765625 2.578125l0 5.375l-1.671875 0zm14.031967 -1.5l0.234375 1.484375q-0.703125 0.140625 -1.265625 0.140625q-0.90625 0 -1.40625 -0.28125q-0.5 -0.296875 -0.703125 -0.75q-0.203125 -0.46875 -0.203125 -1.984375l0 -5.65625l-1.234375 0l0 -1.3125l1.234375 0l0 -2.4375l1.65625 -1.0l0 3.4375l1.6875 0l0 1.3125l-1.6875 0l0 5.75q0 0.71875 0.078125 0.921875q0.09375 0.203125 0.296875 0.328125q0.203125 0.125 0.578125 0.125q0.265625 0 0.734375 -0.078125z" fill-rule="nonzero"></path><path fill="#000000" fill-opacity="0.0" d="m-0.98687667 138.28346l150.48819 0l0 24.346466l-150.48819 0z" fill-rule="nonzero"></path><path fill="#000000" d="m80.547195 156.62076l0 -9.859375l1.5 0l0 1.5q0.578125 -1.046875 1.0625 -1.375q0.484375 -0.34375 1.078125 -0.34375q0.84375 0 1.71875 0.546875l-0.578125 1.546875q-0.609375 -0.359375 -1.234375 -0.359375q-0.546875 0 -0.984375 0.328125q-0.421875 0.328125 -0.609375 0.90625q-0.28125 0.890625 -0.28125 1.953125l0 5.15625l-1.671875 0zm12.978302 -3.171875l1.71875 0.21875q-0.40625 1.5 -1.515625 2.34375q-1.09375 0.828125 -2.8125 0.828125q-2.15625 0 -3.421875 -1.328125q-1.265625 -1.328125 -1.265625 -3.734375q0 -2.484375 1.265625 -3.859375q1.28125 -1.375 3.328125 -1.375q1.984375 0 3.234375 1.34375q1.25 1.34375 1.25 3.796875q0 0.140625 -0.015625 0.4375l-7.34375 0q0.09375 1.625 0.921875 2.484375q0.828125 0.859375 2.0625 0.859375q0.90625 0 1.546875 -0.46875q0.65625 -0.484375 1.046875 -1.546875zm-5.484375 -2.703125l5.5 0q-0.109375 -1.234375 -0.625 -1.859375q-0.796875 -0.96875 -2.078125 -0.96875q-1.140625 0 -1.9375 0.78125q-0.78125 0.765625 -0.859375 2.046875zm9.078842 5.875l0 -13.59375l1.671875 0l0 13.59375l-1.671875 0zm10.926071 -3.171875l1.71875 0.21875q-0.40625 1.5 -1.515625 2.34375q-1.09375 0.828125 -2.8125 0.828125q-2.15625 0 -3.421875 -1.328125q-1.265625 -1.328125 -1.265625 -3.734375q0 -2.484375 1.265625 -3.859375q1.28125 -1.375 3.328125 -1.375q1.984375 0 3.234375 1.34375q1.25 1.34375 1.25 3.796875q0 0.140625 -0.015625 0.4375l-7.34375 0q0.09375 1.625 0.921875 2.484375q0.828125 0.859375 2.0625 0.859375q0.90625 0 1.546875 -0.46875q0.65625 -0.484375 1.046875 -1.546875zm-5.484375 -2.703125l5.5 0q-0.109375 -1.234375 -0.625 -1.859375q-0.796875 -0.96875 -2.078125 -0.96875q-1.140625 0 -1.9375 0.78125q-0.78125 0.765625 -0.859375 2.046875zm15.547592 4.65625q-0.9375 0.796875 -1.796875 1.125q-0.859375 0.3125 -1.84375 0.3125q-1.609375 0 -2.484375 -0.78125q-0.875 -0.796875 -0.875 -2.03125q0 -0.734375 0.328125 -1.328125q0.328125 -0.59375 0.859375 -0.953125q0.53125 -0.359375 1.203125 -0.546875q0.5 -0.140625 1.484375 -0.25q2.03125 -0.25 2.984375 -0.578125q0 -0.34375 0 -0.4375q0 -1.015625 -0.46875 -1.4375q-0.640625 -0.5625 -1.90625 -0.5625q-1.171875 0 -1.734375 0.40625q-0.5625 0.40625 -0.828125 1.46875l-1.640625 -0.234375q0.234375 -1.046875 0.734375 -1.6875q0.515625 -0.640625 1.46875 -0.984375q0.96875 -0.359375 2.25 -0.359375q1.265625 0 2.046875 0.296875q0.78125 0.296875 1.15625 0.75q0.375 0.453125 0.515625 1.140625q0.09375 0.421875 0.09375 1.53125l0 2.234375q0 2.328125 0.09375 2.953125q0.109375 0.609375 0.4375 1.171875l-1.75 0q-0.265625 -0.515625 -0.328125 -1.21875zm-0.140625 -3.71875q-0.90625 0.359375 -2.734375 0.625q-1.03125 0.140625 -1.453125 0.328125q-0.421875 0.1875 -0.65625 0.546875q-0.234375 0.359375 -0.234375 0.796875q0 0.671875 0.5 1.125q0.515625 0.4375 1.484375 0.4375q0.96875 0 1.71875 -0.421875q0.75 -0.4375 1.109375 -1.15625q0.265625 -0.578125 0.265625 -1.671875l0 -0.609375zm3.4069672 2.0l1.65625 -0.265625q0.140625 1.0 0.765625 1.53125q0.640625 0.515625 1.78125 0.515625q1.15625 0 1.703125 -0.46875q0.5625 -0.46875 0.5625 -1.09375q0 -0.5625 -0.484375 -0.890625q-0.34375 -0.21875 -1.703125 -0.5625q-1.84375 -0.46875 -2.5625 -0.796875q-0.703125 -0.34375 -1.078125 -0.9375q-0.359375 -0.609375 -0.359375 -1.328125q0 -0.65625 0.296875 -1.21875q0.3125 -0.5625 0.828125 -0.9375q0.390625 -0.28125 1.0625 -0.484375q0.671875 -0.203125 1.4375 -0.203125q1.171875 0 2.046875 0.34375q0.875 0.328125 1.28125 0.90625q0.421875 0.5625 0.578125 1.515625l-1.625 0.21875q-0.109375 -0.75 -0.65625 -1.171875q-0.53125 -0.4375 -1.5 -0.4375q-1.15625 0 -1.640625 0.390625q-0.484375 0.375 -0.484375 0.875q0 0.328125 0.203125 0.59375q0.203125 0.265625 0.640625 0.4375q0.25 0.09375 1.46875 0.4375q1.765625 0.46875 2.46875 0.765625q0.703125 0.296875 1.09375 0.875q0.40625 0.578125 0.40625 1.4375q0 0.828125 -0.484375 1.578125q-0.484375 0.734375 -1.40625 1.140625q-0.921875 0.390625 -2.078125 0.390625q-1.921875 0 -2.9375 -0.796875q-1.0 -0.796875 -1.28125 -2.359375zm16.75 -0.234375l1.71875 0.21875q-0.40625 1.5 -1.515625 2.34375q-1.09375 0.828125 -2.8125 0.828125q-2.15625 0 -3.421875 -1.328125q-1.265625 -1.328125 -1.265625 -3.734375q0 -2.484375 1.265625 -3.859375q1.28125 -1.375 3.328125 -1.375q1.984375 0 3.234375 1.34375q1.25 1.34375 1.25 3.796875q0 0.140625 -0.015625 0.4375l-7.34375 0q0.09375 1.625 0.921875 2.484375q0.828125 0.859375 2.0625 0.859375q0.90625 0 1.546875 -0.46875q0.65625 -0.484375 1.046875 -1.546875zm-5.484375 -2.703125l5.5 0q-0.109375 -1.234375 -0.625 -1.859375q-0.796875 -0.96875 -2.078125 -0.96875q-1.140625 0 -1.9375 0.78125q-0.78125 0.765625 -0.859375 2.046875z" fill-rule="nonzero"></path><path fill="#000000" fill-opacity="0.0" d="m-0.98687667 241.36482l150.48819 0l0 24.34645l-150.48819 0z" fill-rule="nonzero"></path><path fill="#000000" d="m69.56398 259.70212l0 -8.546875l-1.484375 0l0 -1.3125l1.484375 0l0 -1.046875q0 -0.984375 0.171875 -1.46875q0.234375 -0.65625 0.84375 -1.046875q0.609375 -0.40625 1.703125 -0.40625q0.703125 0 1.5625 0.15625l-0.25 1.46875q-0.515625 -0.09375 -0.984375 -0.09375q-0.765625 0 -1.078125 0.328125q-0.3125 0.3125 -0.3125 1.203125l0 0.90625l1.921875 0l0 1.3125l-1.921875 0l0 8.546875l-1.65625 0zm11.527054 -3.171875l1.71875 0.21875q-0.40625 1.5 -1.515625 2.34375q-1.09375 0.828125 -2.8125 0.828125q-2.15625 0 -3.421875 -1.328125q-1.265625 -1.328125 -1.265625 -3.734375q0 -2.484375 1.265625 -3.859375q1.28125 -1.375 3.328125 -1.375q1.984375 0 3.234375 1.34375q1.25 1.34375 1.25 3.796875q0 0.140625 -0.015625 0.4375l-7.34375 0q0.09375 1.625 0.921875 2.484375q0.828125 0.859375 2.0625 0.859375q0.90625 0 1.546875 -0.46875q0.65625 -0.484375 1.046875 -1.546875zm-5.484375 -2.703125l5.5 0q-0.109375 -1.234375 -0.625 -1.859375q-0.796875 -0.96875 -2.078125 -0.96875q-1.140625 0 -1.9375 0.78125q-0.78125 0.765625 -0.859375 2.046875zm15.547592 4.65625q-0.9375 0.796875 -1.796875 1.125q-0.859375 0.3125 -1.84375 0.3125q-1.609375 0 -2.484375 -0.78125q-0.875 -0.796875 -0.875 -2.03125q0 -0.734375 0.328125 -1.328125q0.328125 -0.59375 0.859375 -0.953125q0.53125 -0.359375 1.203125 -0.546875q0.5 -0.140625 1.484375 -0.25q2.03125 -0.25 2.984375 -0.578125q0 -0.34375 0 -0.4375q0 -1.015625 -0.46875 -1.4375q-0.640625 -0.5625 -1.90625 -0.5625q-1.171875 0 -1.734375 0.40625q-0.5625 0.40625 -0.828125 1.46875l-1.640625 -0.234375q0.234375 -1.046875 0.734375 -1.6875q0.515625 -0.640625 1.46875 -0.984375q0.96875 -0.359375 2.25 -0.359375q1.265625 0 2.046875 0.296875q0.78125 0.296875 1.15625 0.75q0.375 0.453125 0.515625 1.140625q0.09375 0.421875 0.09375 1.53125l0 2.234375q0 2.328125 0.09375 2.953125q0.109375 0.609375 0.4375 1.171875l-1.75 0q-0.265625 -0.515625 -0.328125 -1.21875zm-0.140625 -3.71875q-0.90625 0.359375 -2.734375 0.625q-1.03125 0.140625 -1.453125 0.328125q-0.421875 0.1875 -0.65625 0.546875q-0.234375 0.359375 -0.234375 0.796875q0 0.671875 0.5 1.125q0.515625 0.4375 1.484375 0.4375q0.96875 0 1.71875 -0.421875q0.75 -0.4375 1.109375 -1.15625q0.265625 -0.578125 0.265625 -1.671875l0 -0.609375zm7.735092 3.4375l0.234375 1.484375q-0.703125 0.140625 -1.265625 0.140625q-0.90625 0 -1.40625 -0.28125q-0.5 -0.296875 -0.703125 -0.75q-0.203125 -0.46875 -0.203125 -1.984375l0 -5.65625l-1.234375 0l0 -1.3125l1.234375 0l0 -2.4375l1.65625 -1.0l0 3.4375l1.6875 0l0 1.3125l-1.6875 0l0 5.75q0 0.71875 0.078125 0.921875q0.09375 0.203125 0.296875 0.328125q0.203125 0.125 0.578125 0.125q0.265625 0 0.734375 -0.078125zm7.980179 1.5l0 -1.453125q-1.140625 1.671875 -3.125 1.671875q-0.859375 0 -1.625 -0.328125q-0.75 -0.34375 -1.125 -0.84375q-0.359375 -0.5 -0.515625 -1.234375q-0.09375 -0.5 -0.09375 -1.5625l0 -6.109375l1.671875 0l0 5.46875q0 1.3125 0.09375 1.765625q0.15625 0.65625 0.671875 1.03125q0.515625 0.375 1.265625 0.375q0.75 0 1.40625 -0.375q0.65625 -0.390625 0.921875 -1.046875q0.28125 -0.671875 0.28125 -1.9375l0 -5.28125l1.671875 0l0 9.859375l-1.5 0zm3.9069672 0l0 -9.859375l1.5 0l0 1.5q0.578125 -1.046875 1.0625 -1.375q0.484375 -0.34375 1.078125 -0.34375q0.84375 0 1.71875 0.546875l-0.578125 1.546875q-0.609375 -0.359375 -1.234375 -0.359375q-0.546875 0 -0.984375 0.328125q-0.421875 0.328125 -0.609375 0.90625q-0.28125 0.890625 -0.28125 1.953125l0 5.15625l-1.671875 0zm12.978302 -3.171875l1.71875 0.21875q-0.40625 1.5 -1.515625 2.34375q-1.09375 0.828125 -2.8125 0.828125q-2.15625 0 -3.421875 -1.328125q-1.265625 -1.328125 -1.265625 -3.734375q0 -2.484375 1.265625 -3.859375q1.28125 -1.375 3.328125 -1.375q1.984375 0 3.234375 1.34375q1.25 1.34375 1.25 3.796875q0 0.140625 -0.015625 0.4375l-7.34375 0q0.09375 1.625 0.921875 2.484375q0.828125 0.859375 2.0625 0.859375q0.90625 0 1.546875 -0.46875q0.65625 -0.484375 1.046875 -1.546875zm-5.484375 -2.703125l5.5 0q-0.109375 -1.234375 -0.625 -1.859375q-0.796875 -0.96875 -2.078125 -0.96875q-1.140625 0 -1.9375 0.78125q-0.78125 0.765625 -0.859375 2.046875zm13.184021 5.875l3.59375 -5.125l-3.328125 -4.734375l2.09375 0l1.515625 2.3125q0.421875 0.65625 0.671875 1.109375q0.421875 -0.609375 0.765625 -1.09375l1.65625 -2.328125l1.984375 0l-3.390625 4.640625l3.65625 5.21875l-2.046875 0l-2.03125 -3.0625l-0.53125 -0.828125l-2.59375 3.890625l-2.015625 0z" fill-rule="nonzero"></path><path fill="#38761d" d="m220.61942 150.4567l0 0c0 -6.6361237 5.3796387 -12.015747 12.015762 -12.015747l0 0c3.1867676 0 6.2430267 1.2659302 8.496414 3.519333c2.2533875 2.2533875 3.519333 5.3096313 3.519333 8.496414l0 0c0 6.6361084 -5.3796387 12.015747 -12.015747 12.015747l0 0c-6.6361237 0 -12.015762 -5.3796387 -12.015762 -12.015747z" fill-rule="nonzero"></path><path stroke="#000000" stroke-width="2.0" stroke-linejoin="round" stroke-linecap="butt" d="m220.61942 150.4567l0 0c0 -6.6361237 5.3796387 -12.015747 12.015762 -12.015747l0 0c3.1867676 0 6.2430267 1.2659302 8.496414 3.519333c2.2533875 2.2533875 3.519333 5.3096313 3.519333 8.496414l0 0c0 6.6361084 -5.3796387 12.015747 -12.015747 12.015747l0 0c-6.6361237 0 -12.015762 -5.3796387 -12.015762 -12.015747z" fill-rule="nonzero"></path><path fill="#000000" fill-opacity="0.0" d="m244.65092 150.4567l37.16536 -0.12599182" fill-rule="nonzero"></path><path stroke="#000000" stroke-width="2.0" stroke-linejoin="round" stroke-linecap="butt" d="m244.65092 150.4567l30.311234 -0.102752686" fill-rule="evenodd"></path><path fill="#000000" stroke="#000000" stroke-width="2.0" stroke-linecap="butt" d="m274.96213 150.35394l-2.241516 2.256775l6.171875 -2.2700958l-6.187134 -2.2282104z" fill-rule="evenodd"></path><path fill="#38761d" d="m281.81628 150.4567l0 0c0 -6.6361237 5.379608 -12.015747 12.015747 -12.015747l0 0c3.1867676 0 6.2430115 1.2659302 8.496399 3.519333c2.2533875 2.2533875 3.5193481 5.3096313 3.5193481 8.496414l0 0c0 6.6361084 -5.3796387 12.015747 -12.015747 12.015747l0 0c-6.636139 0 -12.015747 -5.3796387 -12.015747 -12.015747z" fill-rule="nonzero"></path><path stroke="#000000" stroke-width="2.0" stroke-linejoin="round" stroke-linecap="butt" d="m281.81628 150.4567l0 0c0 -6.6361237 5.379608 -12.015747 12.015747 -12.015747l0 0c3.1867676 0 6.2430115 1.2659302 8.496399 3.519333c2.2533875 2.2533875 3.5193481 5.3096313 3.5193481 8.496414l0 0c0 6.6361084 -5.3796387 12.015747 -12.015747 12.015747l0 0c-6.636139 0 -12.015747 -5.3796387 -12.015747 -12.015747z" fill-rule="nonzero"></path><path fill="#000000" fill-opacity="0.0" d="m305.84778 150.4567l37.165344 -0.12599182" fill-rule="nonzero"></path><path stroke="#000000" stroke-width="2.0" stroke-linejoin="round" stroke-linecap="butt" d="m305.84778 150.4567l30.311218 -0.102752686" fill-rule="evenodd"></path><path fill="#000000" stroke="#000000" stroke-width="2.0" stroke-linecap="butt" d="m336.159 150.35394l-2.2415466 2.256775l6.171875 -2.2700958l-6.1871033 -2.2282104z" fill-rule="evenodd"></path><path fill="#38761d" d="m343.01312 150.4567l0 0c0 -6.6361237 5.3796387 -12.015747 12.015747 -12.015747l0 0c3.1867676 0 6.243042 1.2659302 8.496429 3.519333c2.2533875 2.2533875 3.5193176 5.3096313 3.5193176 8.496414l0 0c0 6.6361084 -5.3796387 12.015747 -12.015747 12.015747l0 0c-6.6361084 0 -12.015747 -5.3796387 -12.015747 -12.015747z" fill-rule="nonzero"></path><path stroke="#000000" stroke-width="2.0" stroke-linejoin="round" stroke-linecap="butt" d="m343.01312 150.4567l0 0c0 -6.6361237 5.3796387 -12.015747 12.015747 -12.015747l0 0c3.1867676 0 6.243042 1.2659302 8.496429 3.519333c2.2533875 2.2533875 3.5193176 5.3096313 3.5193176 8.496414l0 0c0 6.6361084 -5.3796387 12.015747 -12.015747 12.015747l0 0c-6.6361084 0 -12.015747 -5.3796387 -12.015747 -12.015747z" fill-rule="nonzero"></path><path fill="#000000" fill-opacity="0.0" d="m367.04462 150.4567l47.668945 44.309357" fill-rule="nonzero"></path><path stroke="#000000" stroke-width="2.0" stroke-linejoin="round" stroke-linecap="butt" d="m367.04462 150.4567l42.64862 39.642853" fill-rule="evenodd"></path><path fill="#000000" stroke="#000000" stroke-width="2.0" stroke-linecap="butt" d="m409.69324 190.09956l-3.1786804 0.116104126l6.0574646 2.559784l-2.9949036 -5.8545685z" fill-rule="evenodd"></path><path fill="#f1c232" d="m411.1942 203.26247l0 0c0 -6.6361084 5.3796387 -12.015747 12.015747 -12.015747l0 0c3.186798 0 6.243042 1.2659454 8.496429 3.519333c2.2533875 2.2533875 3.5193176 5.3096466 3.5193176 8.496414l0 0c0 6.6361084 -5.379608 12.015747 -12.015747 12.015747l0 0c-6.6361084 0 -12.015747 -5.3796387 -12.015747 -12.015747z" fill-rule="nonzero"></path><path stroke="#000000" stroke-width="2.0" stroke-linejoin="round" stroke-linecap="butt" d="m411.1942 203.26247l0 0c0 -6.6361084 5.3796387 -12.015747 12.015747 -12.015747l0 0c3.186798 0 6.243042 1.2659454 8.496429 3.519333c2.2533875 2.2533875 3.5193176 5.3096466 3.5193176 8.496414l0 0c0 6.6361084 -5.379608 12.015747 -12.015747 12.015747l0 0c-6.6361084 0 -12.015747 -5.3796387 -12.015747 -12.015747z" fill-rule="nonzero"></path><path fill="#000000" fill-opacity="0.0" d="m435.2257 203.26247l37.165375 0" fill-rule="nonzero"></path><path stroke="#000000" stroke-width="2.0" stroke-linejoin="round" stroke-linecap="butt" d="m435.2257 203.26247l30.311188 0" fill-rule="evenodd"></path><path fill="#000000" stroke="#000000" stroke-width="2.0" stroke-linecap="butt" d="m465.5369 203.26247l-2.2491455 2.2491608l6.179535 -2.2491608l-6.179535 -2.2491608z" fill-rule="evenodd"></path><path fill="#f1c232" d="m472.39108 203.26247l0 0c0 -6.6361084 5.3796387 -12.015747 12.015747 -12.015747l0 0c3.1867676 0 6.2430115 1.2659454 8.496399 3.519333c2.2533875 2.2533875 3.5193481 5.3096466 3.5193481 8.496414l0 0c0 6.6361084 -5.3796387 12.015747 -12.015747 12.015747l0 0c-6.6361084 0 -12.015747 -5.3796387 -12.015747 -12.015747z" fill-rule="nonzero"></path><path stroke="#000000" stroke-width="2.0" stroke-linejoin="round" stroke-linecap="butt" d="m472.39108 203.26247l0 0c0 -6.6361084 5.3796387 -12.015747 12.015747 -12.015747l0 0c3.1867676 0 6.2430115 1.2659454 8.496399 3.519333c2.2533875 2.2533875 3.5193481 5.3096466 3.5193481 8.496414l0 0c0 6.6361084 -5.3796387 12.015747 -12.015747 12.015747l0 0c-6.6361084 0 -12.015747 -5.3796387 -12.015747 -12.015747z" fill-rule="nonzero"></path><path fill="#000000" fill-opacity="0.0" d="m496.42258 203.26247l39.527557 43.181107" fill-rule="nonzero"></path><path stroke="#000000" stroke-width="2.0" stroke-linejoin="round" stroke-linecap="butt" d="m496.42258 203.26247l34.899506 38.125305" fill-rule="evenodd"></path><path fill="#000000" stroke="#000000" stroke-width="2.0" stroke-linecap="butt" d="m531.3221 241.38777l-3.1776733 -0.1403656l5.831543 3.039505l-2.5134888 -6.0768433z" fill-rule="evenodd"></path><path fill="#3c78d8" d="m533.96326 253.53806l0 0c0 -6.6361084 5.3796387 -12.015747 12.015747 -12.015747l0 0c3.1867676 0 6.243042 1.2659454 8.496399 3.519333c2.253418 2.2533875 3.5193481 5.3096466 3.5193481 8.496414l0 0c0 6.6361084 -5.3796387 12.015747 -12.015747 12.015747l0 0c-6.6361084 0 -12.015747 -5.3796387 -12.015747 -12.015747z" fill-rule="nonzero"></path><path stroke="#000000" stroke-width="2.0" stroke-linejoin="round" stroke-linecap="butt" d="m533.96326 253.53806l0 0c0 -6.6361084 5.3796387 -12.015747 12.015747 -12.015747l0 0c3.1867676 0 6.243042 1.2659454 8.496399 3.519333c2.253418 2.2533875 3.5193481 5.3096466 3.5193481 8.496414l0 0c0 6.6361084 -5.3796387 12.015747 -12.015747 12.015747l0 0c-6.6361084 0 -12.015747 -5.3796387 -12.015747 -12.015747z" fill-rule="nonzero"></path><path fill="#000000" fill-opacity="0.0" d="m557.99475 253.53806l37.165344 0" fill-rule="nonzero"></path><path stroke="#000000" stroke-width="2.0" stroke-linejoin="round" stroke-linecap="butt" d="m557.99475 253.53806l30.311157 0" fill-rule="evenodd"></path><path fill="#000000" stroke="#000000" stroke-width="2.0" stroke-linecap="butt" d="m588.3059 253.53806l-2.2491455 2.249176l6.1795654 -2.249176l-6.1795654 -2.2491608z" fill-rule="evenodd"></path><path fill="#000000" fill-opacity="0.0" d="m-0.98687667 302.03674l150.48819 0l0 24.346466l-150.48819 0z" fill-rule="nonzero"></path><path fill="#000000" d="m69.56398 320.37402l0 -8.546875l-1.484375 0l0 -1.3125l1.484375 0l0 -1.046875q0 -0.984375 0.171875 -1.46875q0.234375 -0.65625 0.84375 -1.046875q0.609375 -0.40625 1.703125 -0.40625q0.703125 0 1.5625 0.15625l-0.25 1.46875q-0.515625 -0.09375 -0.984375 -0.09375q-0.765625 0 -1.078125 0.328125q-0.3125 0.3125 -0.3125 1.203125l0 0.90625l1.921875 0l0 1.3125l-1.921875 0l0 8.546875l-1.65625 0zm11.527054 -3.171875l1.71875 0.21875q-0.40625 1.5 -1.515625 2.34375q-1.09375 0.828125 -2.8125 0.828125q-2.15625 0 -3.421875 -1.328125q-1.265625 -1.328125 -1.265625 -3.734375q0 -2.484375 1.265625 -3.859375q1.28125 -1.375 3.328125 -1.375q1.984375 0 3.234375 1.34375q1.25 1.34375 1.25 3.796875q0 0.140625 -0.015625 0.4375l-7.34375 0q0.09375 1.625 0.921875 2.484375q0.828125 0.859375 2.0625 0.859375q0.90625 0 1.546875 -0.46875q0.65625 -0.484375 1.046875 -1.546875zm-5.484375 -2.703125l5.5 0q-0.109375 -1.234375 -0.625 -1.859375q-0.796875 -0.96875 -2.078125 -0.96875q-1.140625 0 -1.9375 0.78125q-0.78125 0.765625 -0.859375 2.046875zm15.547592 4.65625q-0.9375 0.796875 -1.796875 1.125q-0.859375 0.3125 -1.84375 0.3125q-1.609375 0 -2.484375 -0.78125q-0.875 -0.796875 -0.875 -2.03125q0 -0.734375 0.328125 -1.328125q0.328125 -0.59375 0.859375 -0.953125q0.53125 -0.359375 1.203125 -0.546875q0.5 -0.140625 1.484375 -0.25q2.03125 -0.25 2.984375 -0.578125q0 -0.34375 0 -0.4375q0 -1.015625 -0.46875 -1.4375q-0.640625 -0.5625 -1.90625 -0.5625q-1.171875 0 -1.734375 0.40625q-0.5625 0.40625 -0.828125 1.46875l-1.640625 -0.234375q0.234375 -1.046875 0.734375 -1.6875q0.515625 -0.640625 1.46875 -0.984375q0.96875 -0.359375 2.25 -0.359375q1.265625 0 2.046875 0.296875q0.78125 0.296875 1.15625 0.75q0.375 0.453125 0.515625 1.140625q0.09375 0.421875 0.09375 1.53125l0 2.234375q0 2.328125 0.09375 2.953125q0.109375 0.609375 0.4375 1.171875l-1.75 0q-0.265625 -0.515625 -0.328125 -1.21875zm-0.140625 -3.71875q-0.90625 0.359375 -2.734375 0.625q-1.03125 0.140625 -1.453125 0.328125q-0.421875 0.1875 -0.65625 0.546875q-0.234375 0.359375 -0.234375 0.796875q0 0.671875 0.5 1.125q0.515625 0.4375 1.484375 0.4375q0.96875 0 1.71875 -0.421875q0.75 -0.4375 1.109375 -1.15625q0.265625 -0.578125 0.265625 -1.671875l0 -0.609375zm7.735092 3.4375l0.234375 1.484375q-0.703125 0.140625 -1.265625 0.140625q-0.90625 0 -1.40625 -0.28125q-0.5 -0.296875 -0.703125 -0.75q-0.203125 -0.46875 -0.203125 -1.984375l0 -5.65625l-1.234375 0l0 -1.3125l1.234375 0l0 -2.4375l1.65625 -1.0l0 3.4375l1.6875 0l0 1.3125l-1.6875 0l0 5.75q0 0.71875 0.078125 0.921875q0.09375 0.203125 0.296875 0.328125q0.203125 0.125 0.578125 0.125q0.265625 0 0.734375 -0.078125zm7.980179 1.5l0 -1.453125q-1.140625 1.671875 -3.125 1.671875q-0.859375 0 -1.625 -0.328125q-0.75 -0.34375 -1.125 -0.84375q-0.359375 -0.5 -0.515625 -1.234375q-0.09375 -0.5 -0.09375 -1.5625l0 -6.109375l1.671875 0l0 5.46875q0 1.3125 0.09375 1.765625q0.15625 0.65625 0.671875 1.03125q0.515625 0.375 1.265625 0.375q0.75 0 1.40625 -0.375q0.65625 -0.390625 0.921875 -1.046875q0.28125 -0.671875 0.28125 -1.9375l0 -5.28125l1.671875 0l0 9.859375l-1.5 0zm3.9069672 0l0 -9.859375l1.5 0l0 1.5q0.578125 -1.046875 1.0625 -1.375q0.484375 -0.34375 1.078125 -0.34375q0.84375 0 1.71875 0.546875l-0.578125 1.546875q-0.609375 -0.359375 -1.234375 -0.359375q-0.546875 0 -0.984375 0.328125q-0.421875 0.328125 -0.609375 0.90625q-0.28125 0.890625 -0.28125 1.953125l0 5.15625l-1.671875 0zm12.978302 -3.171875l1.71875 0.21875q-0.40625 1.5 -1.515625 2.34375q-1.09375 0.828125 -2.8125 0.828125q-2.15625 0 -3.421875 -1.328125q-1.265625 -1.328125 -1.265625 -3.734375q0 -2.484375 1.265625 -3.859375q1.28125 -1.375 3.328125 -1.375q1.984375 0 3.234375 1.34375q1.25 1.34375 1.25 3.796875q0 0.140625 -0.015625 0.4375l-7.34375 0q0.09375 1.625 0.921875 2.484375q0.828125 0.859375 2.0625 0.859375q0.90625 0 1.546875 -0.46875q0.65625 -0.484375 1.046875 -1.546875zm-5.484375 -2.703125l5.5 0q-0.109375 -1.234375 -0.625 -1.859375q-0.796875 -0.96875 -2.078125 -0.96875q-1.140625 0 -1.9375 0.78125q-0.78125 0.765625 -0.859375 2.046875zm14.215271 9.671875l-0.171875 -1.5625q0.546875 0.140625 0.953125 0.140625q0.546875 0 0.875 -0.1875q0.34375 -0.1875 0.5625 -0.515625q0.15625 -0.25 0.5 -1.25q0.046875 -0.140625 0.15625 -0.40625l-3.734375 -9.875l1.796875 0l2.046875 5.71875q0.40625 1.078125 0.71875 2.28125q0.28125 -1.15625 0.6875 -2.25l2.09375 -5.75l1.671875 0l-3.75 10.03125q-0.59375 1.625 -0.9375 2.234375q-0.4375 0.828125 -1.015625 1.203125q-0.578125 0.390625 -1.375 0.390625q-0.484375 0 -1.078125 -0.203125z" fill-rule="nonzero"></path><path fill="#c27ba0" d="m411.1942 314.0525l0 0c0 -6.6361084 5.3796387 -12.015747 12.015747 -12.015747l0 0c3.186798 0 6.243042 1.2659302 8.496429 3.5193481c2.2533875 2.2533875 3.5193176 5.3096313 3.5193176 8.496399l0 0c0 6.6361084 -5.379608 12.015747 -12.015747 12.015747l0 0c-6.6361084 0 -12.015747 -5.3796387 -12.015747 -12.015747z" fill-rule="nonzero"></path><path stroke="#000000" stroke-width="2.0" stroke-linejoin="round" stroke-linecap="butt" d="m411.1942 314.0525l0 0c0 -6.6361084 5.3796387 -12.015747 12.015747 -12.015747l0 0c3.186798 0 6.243042 1.2659302 8.496429 3.5193481c2.2533875 2.2533875 3.5193176 5.3096313 3.5193176 8.496399l0 0c0 6.6361084 -5.379608 12.015747 -12.015747 12.015747l0 0c-6.6361084 0 -12.015747 -5.3796387 -12.015747 -12.015747z" fill-rule="nonzero"></path><path fill="#000000" fill-opacity="0.0" d="m435.2257 314.0525l153.0105 0" fill-rule="nonzero"></path><path stroke="#000000" stroke-width="2.0" stroke-linejoin="round" stroke-linecap="butt" d="m435.2257 314.0525l146.15637 0" fill-rule="evenodd"></path><path fill="#000000" stroke="#000000" stroke-width="2.0" stroke-linecap="butt" d="m581.382 314.0525l-2.2491455 2.249176l6.1795654 -2.249176l-6.1795654 -2.249176z" fill-rule="evenodd"></path><path fill="#000000" fill-opacity="0.0" d="m355.02887 162.47244l59.684692 143.08365" fill-rule="nonzero"></path><path stroke="#000000" stroke-width="2.0" stroke-linejoin="round" stroke-linecap="butt" d="m355.02887 162.47244l57.04593 136.75775" fill-rule="evenodd"></path><path fill="#000000" stroke="#000000" stroke-width="2.0" stroke-linecap="butt" d="m412.07483 299.2302l-2.9417114 -1.2099304l4.4548035 4.837372l-0.30319214 -6.5691223z" fill-rule="evenodd"></path><path fill="#c27ba0" d="m588.2362 314.0525l0 0c0 -6.6361084 5.3796387 -12.015747 12.015747 -12.015747l0 0c3.1867676 0 6.243042 1.2659302 8.49646 3.5193481c2.253357 2.2533875 3.519287 5.3096313 3.519287 8.496399l0 0c0 6.6361084 -5.3796387 12.015747 -12.015747 12.015747l0 0c-6.6361084 0 -12.015747 -5.3796387 -12.015747 -12.015747z" fill-rule="nonzero"></path><path stroke="#000000" stroke-width="2.0" stroke-linejoin="round" stroke-linecap="butt" d="m588.2362 314.0525l0 0c0 -6.6361084 5.3796387 -12.015747 12.015747 -12.015747l0 0c3.1867676 0 6.243042 1.2659302 8.49646 3.5193481c2.253357 2.2533875 3.519287 5.3096313 3.519287 8.496399l0 0c0 6.6361084 -5.3796387 12.015747 -12.015747 12.015747l0 0c-6.6361084 0 -12.015747 -5.3796387 -12.015747 -12.015747z" fill-rule="nonzero"></path><path fill="#3c78d8" d="m595.1601 253.53806l0 0c0 -6.6361084 5.3796387 -12.015747 12.015747 -12.015747l0 0c3.1867676 0 6.243042 1.2659454 8.496399 3.519333c2.253418 2.2533875 3.5193481 5.3096466 3.5193481 8.496414l0 0c0 6.6361084 -5.3796387 12.015747 -12.015747 12.015747l0 0c-6.6361084 0 -12.015747 -5.3796387 -12.015747 -12.015747z" fill-rule="nonzero"></path><path stroke="#000000" stroke-width="2.0" stroke-linejoin="round" stroke-linecap="butt" d="m595.1601 253.53806l0 0c0 -6.6361084 5.3796387 -12.015747 12.015747 -12.015747l0 0c3.1867676 0 6.243042 1.2659454 8.496399 3.519333c2.253418 2.2533875 3.5193481 5.3096466 3.5193481 8.496414l0 0c0 6.6361084 -5.3796387 12.015747 -12.015747 12.015747l0 0c-6.6361084 0 -12.015747 -5.3796387 -12.015747 -12.015747z" fill-rule="nonzero"></path><path fill="#000000" fill-opacity="0.0" d="m619.1916 253.53806l40.684692 -41.779175" fill-rule="nonzero"></path><path stroke="#000000" stroke-width="2.0" stroke-linejoin="round" stroke-linecap="butt" d="m619.1916 253.53806l35.902832 -36.868637" fill-rule="evenodd"></path><path fill="#000000" stroke="#000000" stroke-width="2.0" stroke-linecap="butt" d="m655.09436 216.6694l0.042236328 3.1805267l2.699829 -5.996353l-5.9225464 2.8580475z" fill-rule="evenodd"></path><path fill="#f1c232" d="m656.35693 203.26247l0 0c0 -6.6361084 5.3796387 -12.015747 12.015747 -12.015747l0 0c3.1867676 0 6.243042 1.2659454 8.49646 3.519333c2.253357 2.2533875 3.519287 5.3096466 3.519287 8.496414l0 0c0 6.6361084 -5.3796387 12.015747 -12.015747 12.015747l0 0c-6.6361084 0 -12.015747 -5.3796387 -12.015747 -12.015747z" fill-rule="nonzero"></path><path stroke="#000000" stroke-width="2.0" stroke-linejoin="round" stroke-linecap="butt" d="m656.35693 203.26247l0 0c0 -6.6361084 5.3796387 -12.015747 12.015747 -12.015747l0 0c3.1867676 0 6.243042 1.2659454 8.49646 3.519333c2.253357 2.2533875 3.519287 5.3096466 3.519287 8.496414l0 0c0 6.6361084 -5.3796387 12.015747 -12.015747 12.015747l0 0c-6.6361084 0 -12.015747 -5.3796387 -12.015747 -12.015747z" fill-rule="nonzero"></path><path fill="#000000" fill-opacity="0.0" d="m676.86914 194.76605l44.20398 -35.812943" fill-rule="nonzero"></path><path stroke="#000000" stroke-width="2.0" stroke-linejoin="round" stroke-linecap="butt" d="m676.86914 194.76605l38.878296 -31.498215" fill-rule="evenodd"></path><path fill="#000000" stroke="#000000" stroke-width="2.0" stroke-linecap="butt" d="m715.7475 163.26784l-0.33172607 3.1634521l3.38562 -5.6376343l-6.217346 2.1424408z" fill-rule="evenodd"></path><path fill="#000000" fill-opacity="0.0" d="m496.42258 203.26247l159.93698 0" fill-rule="nonzero"></path><path stroke="#000000" stroke-width="2.0" stroke-linejoin="round" stroke-linecap="butt" d="m496.42258 203.26247l153.08286 0" fill-rule="evenodd"></path><path fill="#000000" stroke="#000000" stroke-width="2.0" stroke-linecap="butt" d="m649.50543 203.26247l-2.2492065 2.2491608l6.1795654 -2.2491608l-6.1795654 -2.2491608z" fill-rule="evenodd"></path><path fill="#000000" fill-opacity="0.0" d="m-0.98687667 80.850395l150.48819 0l0 24.346458l-150.48819 0z" fill-rule="nonzero"></path><path fill="#000000" d="m77.45648 99.18768l0 -13.59375l1.671875 0l0 4.875q1.171875 -1.359375 2.953125 -1.359375q1.09375 0 1.890625 0.4375q0.8125 0.421875 1.15625 1.1875q0.359375 0.765625 0.359375 2.203125l0 6.25l-1.671875 0l0 -6.25q0 -1.25 -0.546875 -1.8125q-0.546875 -0.578125 -1.53125 -0.578125q-0.75 0 -1.40625 0.390625q-0.640625 0.375 -0.921875 1.046875q-0.28125 0.65625 -0.28125 1.8125l0 5.390625l-1.671875 0zm9.750717 -4.921875q0 -2.734375 1.53125 -4.0625q1.265625 -1.09375 3.09375 -1.09375q2.03125 0 3.3125 1.34375q1.296875 1.328125 1.296875 3.671875q0 1.90625 -0.578125 3.0q-0.5625 1.078125 -1.65625 1.6875q-1.078125 0.59375 -2.375 0.59375q-2.0625 0 -3.34375 -1.328125q-1.28125 -1.328125 -1.28125 -3.8125zm1.71875 0q0 1.890625 0.828125 2.828125q0.828125 0.9375 2.078125 0.9375q1.25 0 2.0625 -0.9375q0.828125 -0.953125 0.828125 -2.890625q0 -1.828125 -0.828125 -2.765625q-0.828125 -0.9375 -2.0625 -0.9375q-1.25 0 -2.078125 0.9375q-0.828125 0.9375 -0.828125 2.828125zm12.938217 3.421875l0.234375 1.484375q-0.703125 0.140625 -1.265625 0.140625q-0.90625 0 -1.40625 -0.28125q-0.5 -0.296875 -0.703125 -0.75q-0.203125 -0.46875 -0.203125 -1.984375l0 -5.65625l-1.234375 0l0 -1.3125l1.234375 0l0 -2.4375l1.65625 -1.0l0 3.4375l1.6875 0l0 1.3125l-1.6875 0l0 5.75q0 0.71875 0.078125 0.921875q0.09375 0.203125 0.296875 0.328125q0.203125 0.125 0.578125 0.125q0.265625 0 0.734375 -0.078125zm1.9333038 1.5l0 -8.546875l-1.484375 0l0 -1.3125l1.484375 0l0 -1.046875q0 -0.984375 0.171875 -1.46875q0.234375 -0.65625 0.84375 -1.046875q0.609375 -0.40625 1.703125 -0.40625q0.703125 0 1.5625 0.15625l-0.25 1.46875q-0.515625 -0.09375 -0.984375 -0.09375q-0.765625 0 -1.078125 0.328125q-0.3125 0.3125 -0.3125 1.203125l0 0.90625l1.921875 0l0 1.3125l-1.921875 0l0 8.546875l-1.65625 0zm4.792679 -11.6875l0 -1.90625l1.671875 0l0 1.90625l-1.671875 0zm0 11.6875l0 -9.859375l1.671875 0l0 9.859375l-1.671875 0zm3.0198212 0l3.59375 -5.125l-3.328125 -4.734375l2.09375 0l1.515625 2.3125q0.421875 0.65625 0.671875 1.109375q0.421875 -0.609375 0.765625 -1.09375l1.65625 -2.328125l1.984375 0l-3.390625 4.640625l3.65625 5.21875l-2.046875 0l-2.03125 -3.0625l-0.53125 -0.828125l-2.59375 3.890625l-2.015625 0zm17.1875 -3.171875l1.71875 0.21875q-0.40625 1.5 -1.515625 2.34375q-1.09375 0.828125 -2.8125 0.828125q-2.15625 0 -3.421875 -1.328125q-1.265625 -1.328125 -1.265625 -3.734375q0 -2.484375 1.265625 -3.859375q1.28125 -1.375 3.328125 -1.375q1.984375 0 3.234375 1.34375q1.25 1.34375 1.25 3.796875q0 0.140625 -0.015625 0.4375l-7.34375 0q0.09375 1.625 0.921875 2.484375q0.828125 0.859375 2.0625 0.859375q0.90625 0 1.546875 -0.46875q0.65625 -0.484375 1.046875 -1.546875zm-5.484375 -2.703125l5.5 0q-0.109375 -1.234375 -0.625 -1.859375q-0.796875 -0.96875 -2.078125 -0.96875q-1.140625 0 -1.9375 0.78125q-0.78125 0.765625 -0.859375 2.046875zm8.438217 2.9375l1.65625 -0.265625q0.140625 1.0 0.765625 1.53125q0.640625 0.515625 1.78125 0.515625q1.15625 0 1.703125 -0.46875q0.5625 -0.46875 0.5625 -1.09375q0 -0.5625 -0.484375 -0.890625q-0.34375 -0.21875 -1.703125 -0.5625q-1.84375 -0.46875 -2.5625 -0.796875q-0.703125 -0.34375 -1.078125 -0.9375q-0.359375 -0.609375 -0.359375 -1.328125q0 -0.65625 0.296875 -1.21875q0.3125 -0.5625 0.828125 -0.9375q0.390625 -0.28125 1.0625 -0.484375q0.671875 -0.203125 1.4375 -0.203125q1.171875 0 2.046875 0.34375q0.875 0.328125 1.28125 0.90625q0.421875 0.5625 0.578125 1.515625l-1.625 0.21875q-0.109375 -0.75 -0.65625 -1.171875q-0.53125 -0.4375 -1.5 -0.4375q-1.15625 0 -1.640625 0.390625q-0.484375 0.375 -0.484375 0.875q0 0.328125 0.203125 0.59375q0.203125 0.265625 0.640625 0.4375q0.25 0.09375 1.46875 0.4375q1.765625 0.46875 2.46875 0.765625q0.703125 0.296875 1.09375 0.875q0.40625 0.578125 0.40625 1.4375q0 0.828125 -0.484375 1.578125q-0.484375 0.734375 -1.40625 1.140625q-0.921875 0.390625 -2.078125 0.390625q-1.921875 0 -2.9375 -0.796875q-1.0 -0.796875 -1.28125 -2.359375z" fill-rule="nonzero"></path><path fill="#000000" fill-opacity="0.0" d="m-0.98687667 24.850393l150.48819 0l0 24.346457l-150.48819 0z" fill-rule="nonzero"></path><path fill="#000000" d="m84.73497 43.187687l0 -9.859375l1.5 0l0 1.390625q0.453125 -0.71875 1.21875 -1.15625q0.78125 -0.453125 1.765625 -0.453125q1.09375 0 1.796875 0.453125q0.703125 0.453125 0.984375 1.28125q1.171875 -1.734375 3.046875 -1.734375q1.46875 0 2.25 0.8125q0.796875 0.8125 0.796875 2.5l0 6.765625l-1.671875 0l0 -6.203125q0 -1.0 -0.15625 -1.4375q-0.15625 -0.453125 -0.59375 -0.71875q-0.421875 -0.265625 -1.0 -0.265625q-1.03125 0 -1.71875 0.6875q-0.6875 0.6875 -0.6875 2.21875l0 5.71875l-1.671875 0l0 -6.40625q0 -1.109375 -0.40625 -1.65625q-0.40625 -0.5625 -1.34375 -0.5625q-0.703125 0 -1.3125 0.375q-0.59375 0.359375 -0.859375 1.078125q-0.265625 0.71875 -0.265625 2.0625l0 5.109375l-1.671875 0zm21.978302 -1.21875q-0.9375 0.796875 -1.796875 1.125q-0.859375 0.3125 -1.84375 0.3125q-1.609375 0 -2.484375 -0.78125q-0.875 -0.796875 -0.875 -2.03125q0 -0.734375 0.328125 -1.328125q0.328125 -0.59375 0.859375 -0.953125q0.53125 -0.359375 1.203125 -0.546875q0.5 -0.140625 1.484375 -0.25q2.03125 -0.25 2.984375 -0.578125q0 -0.34375 0 -0.4375q0 -1.015625 -0.46875 -1.4375q-0.640625 -0.5625 -1.90625 -0.5625q-1.171875 0 -1.734375 0.40625q-0.5625 0.40625 -0.828125 1.46875l-1.640625 -0.234375q0.234375 -1.046875 0.734375 -1.6875q0.515625 -0.640625 1.46875 -0.984375q0.96875 -0.359375 2.25 -0.359375q1.265625 0 2.046875 0.296875q0.78125 0.296875 1.15625 0.75q0.375 0.453125 0.515625 1.140625q0.09375 0.421875 0.09375 1.53125l0 2.234375q0 2.328125 0.09375 2.953125q0.109375 0.609375 0.4375 1.171875l-1.75 0q-0.265625 -0.515625 -0.328125 -1.21875zm-0.140625 -3.71875q-0.90625 0.359375 -2.734375 0.625q-1.03125 0.140625 -1.453125 0.328125q-0.421875 0.1875 -0.65625 0.546875q-0.234375 0.359375 -0.234375 0.796875q0 0.671875 0.5 1.125q0.515625 0.4375 1.484375 0.4375q0.96875 0 1.71875 -0.421875q0.75 -0.4375 1.109375 -1.15625q0.265625 -0.578125 0.265625 -1.671875l0 -0.609375zm3.4069672 2.0l1.65625 -0.265625q0.140625 1.0 0.765625 1.53125q0.640625 0.515625 1.78125 0.515625q1.15625 0 1.703125 -0.46875q0.5625 -0.46875 0.5625 -1.09375q0 -0.5625 -0.484375 -0.890625q-0.34375 -0.21875 -1.703125 -0.5625q-1.84375 -0.46875 -2.5625 -0.796875q-0.703125 -0.34375 -1.078125 -0.9375q-0.359375 -0.609375 -0.359375 -1.328125q0 -0.65625 0.296875 -1.21875q0.3125 -0.5625 0.828125 -0.9375q0.390625 -0.28125 1.0625 -0.484375q0.671875 -0.203125 1.4375 -0.203125q1.171875 0 2.046875 0.34375q0.875 0.328125 1.28125 0.90625q0.421875 0.5625 0.578125 1.515625l-1.625 0.21875q-0.109375 -0.75 -0.65625 -1.171875q-0.53125 -0.4375 -1.5 -0.4375q-1.15625 0 -1.640625 0.390625q-0.484375 0.375 -0.484375 0.875q0 0.328125 0.203125 0.59375q0.203125 0.265625 0.640625 0.4375q0.25 0.09375 1.46875 0.4375q1.765625 0.46875 2.46875 0.765625q0.703125 0.296875 1.09375 0.875q0.40625 0.578125 0.40625 1.4375q0 0.828125 -0.484375 1.578125q-0.484375 0.734375 -1.40625 1.140625q-0.921875 0.390625 -2.078125 0.390625q-1.921875 0 -2.9375 -0.796875q-1.0 -0.796875 -1.28125 -2.359375zm13.65625 1.4375l0.234375 1.484375q-0.703125 0.140625 -1.265625 0.140625q-0.90625 0 -1.40625 -0.28125q-0.5 -0.296875 -0.703125 -0.75q-0.203125 -0.46875 -0.203125 -1.984375l0 -5.65625l-1.234375 0l0 -1.3125l1.234375 0l0 -2.437502l1.65625 -1.0l0 3.437502l1.6875 0l0 1.3125l-1.6875 0l0 5.75q0 0.71875 0.078125 0.921875q0.09375 0.203125 0.296875 0.328125q0.203125 0.125 0.578125 0.125q0.265625 0 0.734375 -0.078125zm8.277054 -1.671875l1.71875 0.21875q-0.40625 1.5 -1.515625 2.34375q-1.09375 0.828125 -2.8125 0.828125q-2.15625 0 -3.421875 -1.328125q-1.265625 -1.328125 -1.265625 -3.734375q0 -2.484375 1.265625 -3.859375q1.28125 -1.375 3.328125 -1.375q1.984375 0 3.234375 1.34375q1.25 1.34375 1.25 3.796875q0 0.140625 -0.015625 0.4375l-7.34375 0q0.09375 1.625 0.921875 2.484375q0.828125 0.859375 2.0625 0.859375q0.90625 0 1.546875 -0.46875q0.65625 -0.484375 1.046875 -1.546875zm-5.484375 -2.703125l5.5 0q-0.109375 -1.234375 -0.625 -1.859375q-0.796875 -0.96875 -2.078125 -0.96875q-1.140625 0 -1.9375 0.78125q-0.78125 0.765625 -0.859375 2.046875zm9.094467 5.875l0 -9.859375l1.5 0l0 1.5q0.578125 -1.046875 1.0625 -1.375q0.484375 -0.34375 1.078125 -0.34375q0.84375 0 1.71875 0.546875l-0.578125 1.546875q-0.609375 -0.359375 -1.234375 -0.359375q-0.546875 0 -0.984375 0.328125q-0.421875 0.328125 -0.609375 0.90625q-0.28125 0.890625 -0.28125 1.953125l0 5.15625l-1.671875 0z" fill-rule="nonzero"></path><path fill="#a2c4c9" d="m198.06824 37.02362l0 0c0 -6.636112 5.3796387 -12.015747 12.015747 -12.015747l0 0c3.1867828 0 6.2430267 1.2659416 8.496429 3.519331c2.2533875 2.2533913 3.5193176 5.3096447 3.5193176 8.496416l0 0c0 6.636116 -5.3796234 12.015751 -12.015747 12.015751l0 0c-6.6361084 0 -12.015747 -5.379635 -12.015747 -12.015751z" fill-rule="nonzero"></path><path stroke="#000000" stroke-width="2.0" stroke-linejoin="round" stroke-linecap="butt" d="m198.06824 37.02362l0 0c0 -6.636112 5.3796387 -12.015747 12.015747 -12.015747l0 0c3.1867828 0 6.2430267 1.2659416 8.496429 3.519331c2.2533875 2.2533913 3.5193176 5.3096447 3.5193176 8.496416l0 0c0 6.636116 -5.3796234 12.015751 -12.015747 12.015751l0 0c-6.6361084 0 -12.015747 -5.379635 -12.015747 -12.015751z" fill-rule="nonzero"></path><path fill="#000000" fill-opacity="0.0" d="m210.08398 49.03937l14.054764 92.92091" fill-rule="nonzero"></path><path stroke="#000000" stroke-width="2.0" stroke-linejoin="round" stroke-linecap="butt" d="m210.08398 49.03937l13.029694 86.143814" fill-rule="evenodd"></path><path fill="#000000" stroke="#000000" stroke-width="2.0" stroke-linecap="butt" d="m223.1137 135.18318l-2.5602417 -1.887497l3.1480408 5.7736664l1.2996979 -6.446411z" fill-rule="evenodd"></path><path fill="#000000" fill-opacity="0.0" d="m154.98163 37.02362l43.08661 0" fill-rule="nonzero"></path><path stroke="#000000" stroke-width="2.0" stroke-linejoin="round" stroke-linecap="butt" stroke-dasharray="2.0,6.0" d="m154.98163 37.02362l36.232452 0" fill-rule="evenodd"></path><path fill="#000000" stroke="#000000" stroke-width="2.0" stroke-linecap="butt" d="m191.21407 37.02362l-2.2491608 2.2491684l6.179535 -2.2491684l-6.179535 -2.2491646z" fill-rule="evenodd"></path><path fill="#cc0000" d="m281.81628 93.02362l0 0c0 -6.636116 5.379608 -12.015747 12.015747 -12.015747l0 0c3.1867676 0 6.2430115 1.2659454 8.496399 3.519333c2.2533875 2.2533875 3.5193481 5.309639 3.5193481 8.496414l0 0c0 6.636116 -5.3796387 12.015747 -12.015747 12.015747l0 0c-6.636139 0 -12.015747 -5.379631 -12.015747 -12.015747z" fill-rule="nonzero"></path><path stroke="#000000" stroke-width="2.0" stroke-linejoin="round" stroke-linecap="butt" d="m281.81628 93.02362l0 0c0 -6.636116 5.379608 -12.015747 12.015747 -12.015747l0 0c3.1867676 0 6.2430115 1.2659454 8.496399 3.519333c2.2533875 2.2533875 3.5193481 5.309639 3.5193481 8.496414l0 0c0 6.636116 -5.3796387 12.015747 -12.015747 12.015747l0 0c-6.636139 0 -12.015747 -5.379631 -12.015747 -12.015747z" fill-rule="nonzero"></path><path fill="#000000" fill-opacity="0.0" d="m222.09973 37.02362l63.23587 47.503586" fill-rule="nonzero"></path><path stroke="#000000" stroke-width="2.0" stroke-linejoin="round" stroke-linecap="butt" d="m222.09973 37.02362l57.755737 43.386826" fill-rule="evenodd"></path><path fill="#000000" stroke="#000000" stroke-width="2.0" stroke-linecap="butt" d="m279.85547 80.410446l-3.1492004 0.44739532l6.2916565 1.913269l-3.5898438 -5.509842z" fill-rule="evenodd"></path><path fill="#000000" fill-opacity="0.0" d="m302.32843 101.52004l44.20401 40.44024" fill-rule="nonzero"></path><path stroke="#000000" stroke-width="2.0" stroke-linejoin="round" stroke-linecap="butt" d="m302.32843 101.52004l39.14685 35.813683" fill-rule="evenodd"></path><path fill="#000000" stroke="#000000" stroke-width="2.0" stroke-linecap="butt" d="m341.47528 137.33372l-3.1776428 0.14129639l6.0775757 2.5116882l-3.0412292 -5.830658z" fill-rule="evenodd"></path><path fill="#38761d" d="m717.55383 150.4567l0 0c0 -6.6361237 5.3795776 -12.015747 12.015747 -12.015747l0 0c3.1867676 0 6.242981 1.2659302 8.496399 3.519333c2.253357 2.2533875 3.5193481 5.3096313 3.5193481 8.496414l0 0c0 6.6361084 -5.3796387 12.015747 -12.015747 12.015747l0 0c-6.6361694 0 -12.015747 -5.3796387 -12.015747 -12.015747z" fill-rule="nonzero"></path><path stroke="#000000" stroke-width="2.0" stroke-linejoin="round" stroke-linecap="butt" d="m717.55383 150.4567l0 0c0 -6.6361237 5.3795776 -12.015747 12.015747 -12.015747l0 0c3.1867676 0 6.242981 1.2659302 8.496399 3.519333c2.253357 2.2533875 3.5193481 5.3096313 3.5193481 8.496414l0 0c0 6.6361084 -5.3796387 12.015747 -12.015747 12.015747l0 0c-6.6361694 0 -12.015747 -5.3796387 -12.015747 -12.015747z" fill-rule="nonzero"></path><path fill="#000000" fill-opacity="0.0" d="m738.066 141.96028l81.27191 -96.44025" fill-rule="nonzero"></path><path stroke="#000000" stroke-width="2.0" stroke-linejoin="round" stroke-linecap="butt" d="m738.0659 141.96027l76.85504 -91.198975" fill-rule="evenodd"></path><path fill="#000000" stroke="#000000" stroke-width="2.0" stroke-linecap="butt" d="m814.92096 50.76129l0.2705078 3.1692772l2.262268 -6.174755l-5.7020874 3.2759857z" fill-rule="evenodd"></path><path fill="#a2c4c9" d="m815.81854 37.02362l0 0c0 -6.636112 5.3796387 -12.015747 12.015747 -12.015747l0 0c3.1867676 0 6.243042 1.2659416 8.496399 3.519331c2.253418 2.2533913 3.5193481 5.3096447 3.5193481 8.496416l0 0c0 6.636116 -5.3796387 12.015751 -12.015747 12.015751l0 0c-6.6361084 0 -12.015747 -5.379635 -12.015747 -12.015751z" fill-rule="nonzero"></path><path stroke="#000000" stroke-width="2.0" stroke-linejoin="round" stroke-linecap="butt" d="m815.81854 37.02362l0 0c0 -6.636112 5.3796387 -12.015747 12.015747 -12.015747l0 0c3.1867676 0 6.243042 1.2659416 8.496399 3.519331c2.253418 2.2533913 3.5193481 5.3096447 3.5193481 8.496416l0 0c0 6.636116 -5.3796387 12.015751 -12.015747 12.015751l0 0c-6.6361084 0 -12.015747 -5.379635 -12.015747 -12.015751z" fill-rule="nonzero"></path><path fill="#000000" fill-opacity="0.0" d="m839.85004 37.02362l37.165344 -0.12598419" fill-rule="nonzero"></path><path stroke="#000000" stroke-width="2.0" stroke-linejoin="round" stroke-linecap="butt" d="m839.85004 37.02362l30.311218 -0.10274887" fill-rule="evenodd"></path><path fill="#000000" stroke="#000000" stroke-width="2.0" stroke-linecap="butt" d="m870.1613 36.92087l-2.2415771 2.2567787l6.171875 -2.2700996l-6.187134 -2.2282104z" fill-rule="evenodd"></path><path fill="#000000" fill-opacity="0.0" d="m207.36482 8.724409l42.771667 0l0 16.125984l-42.771667 0z" fill-rule="nonzero"></path><path fill="#000000" d="m218.67732 20.303026l-2.171875 -5.703125l1.015625 0l1.234375 3.421875q0.1875 0.546875 0.359375 1.140625q0.125 -0.453125 0.359375 -1.078125l1.265625 -3.484375l1.0 0l-2.15625 5.703125l-0.90625 0zm7.109375 0l-0.96875 0l0 -6.15625q-0.34375 0.328125 -0.90625 0.671875q-0.5625 0.328125 -1.015625 0.484375l0 -0.9375q0.8125 -0.375 1.40625 -0.90625q0.609375 -0.546875 0.859375 -1.0625l0.625 0l0 7.90625zm2.8327484 0l0 -1.09375l1.09375 0l0 1.09375l-1.09375 0zm2.4137726 -2.0625l1.015625 -0.09375q0.109375 0.75 0.515625 1.125q0.421875 0.375 1.0 0.375q0.703125 0 1.1875 -0.53125q0.484375 -0.53125 0.484375 -1.390625q0 -0.828125 -0.46875 -1.296875q-0.46875 -0.484375 -1.21875 -0.484375q-0.46875 0 -0.84375 0.21875q-0.375 0.203125 -0.59375 0.53125l-0.90625 -0.109375l0.765625 -4.046875l3.921875 0l0 0.921875l-3.140625 0l-0.4375 2.109375q0.71875 -0.484375 1.5 -0.484375q1.03125 0 1.734375 0.71875q0.703125 0.703125 0.703125 1.828125q0 1.078125 -0.625 1.84375q-0.75 0.96875 -2.0625 0.96875q-1.078125 0 -1.765625 -0.59375q-0.671875 -0.609375 -0.765625 -1.609375z" fill-rule="nonzero"></path><path fill="#000000" fill-opacity="0.0" d="m829.8189 11.700788l42.771667 0l0 16.125984l-42.771667 0z" fill-rule="nonzero"></path><path fill="#000000" d="m841.1314 23.279404l-2.171875 -5.703125l1.015625 0l1.234375 3.421875q0.1875 0.546875 0.359375 1.140625q0.125 -0.453125 0.359375 -1.078125l1.265625 -3.484375l1.0 0l-2.15625 5.703125l-0.90625 0zm7.109375 0l-0.96875 0l0 -6.15625q-0.34375 0.328125 -0.90625 0.671875q-0.5625 0.328125 -1.015625 0.484375l0 -0.9375q0.8125 -0.375 1.40625 -0.90625q0.609375 -0.54687405 0.859375 -1.062499l0.625 0l0 7.906249zm2.8327637 0l0 -1.09375l1.09375 0l0 1.09375l-1.09375 0zm7.4293823 -5.953125l-0.953125 0.078125q-0.125 -0.5625 -0.375 -0.828125q-0.390625 -0.40625 -0.953125 -0.40625q-0.46875 0 -0.8125 0.25q-0.46875 0.34375 -0.734375 0.984375q-0.25 0.625 -0.265625 1.8125q0.34375 -0.53125 0.84375 -0.78125q0.515625 -0.265625 1.0625 -0.265625q0.96875 0 1.640625 0.71875q0.6875 0.703125 0.6875 1.828125q0 0.75 -0.328125 1.390625q-0.3125 0.625 -0.875 0.96875q-0.546875 0.34375 -1.265625 0.34375q-1.203125 0 -1.96875 -0.890625q-0.765625 -0.890625 -0.765625 -2.9375q0 -2.28125 0.84375 -3.3125q0.75 -0.90624905 1.984375 -0.90624905q0.9375 0 1.53125 0.53125q0.59375 0.51562405 0.703125 1.421874zm-3.9375 3.40625q0 0.5 0.203125 0.953125q0.21875 0.453125 0.59375 0.703125q0.390625 0.234375 0.796875 0.234375q0.625 0 1.0625 -0.5q0.4375 -0.5 0.4375 -1.34375q0 -0.8125 -0.4375 -1.28125q-0.4375 -0.46875 -1.09375 -0.46875q-0.65625 0 -1.109375 0.46875q-0.453125 0.46875 -0.453125 1.234375z" fill-rule="nonzero"></path><path fill="#a2c4c9" d="m382.65353 37.02362l0 0c0 -6.636112 5.3796387 -12.015747 12.015747 -12.015747l0 0c3.186798 0 6.243042 1.2659416 8.496429 3.519331c2.2533875 2.2533913 3.5193176 5.3096447 3.5193176 8.496416l0 0c0 6.636116 -5.379608 12.015751 -12.015747 12.015751l0 0c-6.6361084 0 -12.015747 -5.379635 -12.015747 -12.015751z" fill-rule="nonzero"></path><path stroke="#000000" stroke-width="2.0" stroke-linejoin="round" stroke-linecap="butt" d="m382.65353 37.02362l0 0c0 -6.636112 5.3796387 -12.015747 12.015747 -12.015747l0 0c3.186798 0 6.243042 1.2659416 8.496429 3.519331c2.2533875 2.2533913 3.5193176 5.3096447 3.5193176 8.496416l0 0c0 6.636116 -5.379608 12.015751 -12.015747 12.015751l0 0c-6.6361084 0 -12.015747 -5.379635 -12.015747 -12.015751z" fill-rule="nonzero"></path><path fill="#000000" fill-opacity="0.0" d="m406.68503 37.02362l409.1335 0" fill-rule="nonzero"></path><path stroke="#000000" stroke-width="2.0" stroke-linejoin="round" stroke-linecap="butt" d="m406.68503 37.02362l402.2794 0" fill-rule="evenodd"></path><path fill="#000000" stroke="#000000" stroke-width="2.0" stroke-linecap="butt" d="m808.9644 37.02362l-2.2492065 2.2491684l6.1795654 -2.2491684l-6.1795654 -2.2491646z" fill-rule="evenodd"></path><path fill="#000000" fill-opacity="0.0" d="m222.09973 37.02362l160.5538 0" fill-rule="nonzero"></path><path stroke="#000000" stroke-width="2.0" stroke-linejoin="round" stroke-linecap="butt" d="m222.09973 37.02362l153.69965 0" fill-rule="evenodd"></path><path fill="#000000" stroke="#000000" stroke-width="2.0" stroke-linecap="butt" d="m375.79938 37.02362l-2.249176 2.2491684l6.179535 -2.2491684l-6.179535 -2.2491646z" fill-rule="evenodd"></path><path fill="#000000" fill-opacity="0.0" d="m302.32843 84.52721l83.84445 -39.007168" fill-rule="nonzero"></path><path stroke="#000000" stroke-width="2.0" stroke-linejoin="round" stroke-linecap="butt" d="m302.32843 84.52721l77.62985 -36.11596" fill-rule="evenodd"></path><path fill="#000000" stroke="#000000" stroke-width="2.0" stroke-linecap="butt" d="m379.9583 48.411247l-1.0905457 2.988018l4.6541443 -4.645916l-6.551605 0.5673599z" fill-rule="evenodd"></path><path fill="#000000" fill-opacity="0.0" d="m397.54593 8.724409l55.527557 0l0 16.125984l-55.527557 0z" fill-rule="nonzero"></path><path fill="#000000" d="m408.85843 20.303026l-2.171875 -5.703125l1.015625 0l1.234375 3.421875q0.1875 0.546875 0.359375 1.140625q0.125 -0.453125 0.359375 -1.078125l1.265625 -3.484375l1.0 0l-2.15625 5.703125l-0.90625 0zm7.109375 0l-0.96875 0l0 -6.15625q-0.34375 0.328125 -0.90625 0.671875q-0.5625 0.328125 -1.015625 0.484375l0 -0.9375q0.8125 -0.375 1.40625 -0.90625q0.609375 -0.546875 0.859375 -1.0625l0.625 0l0 7.90625zm2.8327637 0l0 -1.09375l1.09375 0l0 1.09375l-1.09375 0zm2.4137573 -2.0625l1.015625 -0.09375q0.109375 0.75 0.515625 1.125q0.421875 0.375 1.0 0.375q0.703125 0 1.1875 -0.53125q0.484375 -0.53125 0.484375 -1.390625q0 -0.828125 -0.46875 -1.296875q-0.46875 -0.484375 -1.21875 -0.484375q-0.46875 0 -0.84375 0.21875q-0.375 0.203125 -0.59375 0.53125l-0.90625 -0.109375l0.765625 -4.046875l3.921875 0l0 0.921875l-3.140625 0l-0.4375 2.109375q0.71875 -0.484375 1.5 -0.484375q1.03125 0 1.734375 0.71875q0.703125 0.703125 0.703125 1.828125q0 1.078125 -0.625 1.84375q-0.75 0.96875 -2.0625 0.96875q-1.078125 0 -1.765625 -0.59375q-0.671875 -0.609375 -0.765625 -1.609375zm6.4733887 2.0625l0 -1.09375l1.09375 0l0 1.09375l-1.09375 0zm6.0543823 0l-0.96875 0l0 -6.15625q-0.34375 0.328125 -0.90625 0.671875q-0.5625 0.328125 -1.015625 0.484375l0 -0.9375q0.8125 -0.375 1.40625 -0.90625q0.609375 -0.546875 0.859375 -1.0625l0.625 0l0 7.90625z" fill-rule="nonzero"></path></g></svg>

