<?xml version="1.0" standalone="yes"?>

<svg version="1.1" viewBox="0.0 0.0 649.0 293.0" fill="none" stroke="none" stroke-linecap="square" stroke-miterlimit="10" xmlns="http://www.w3.org/2000/svg" xmlns:xlink="http://www.w3.org/1999/xlink"><clipPath id="p.0"><path d="m0 0l649.0 0l0 293.0l-649.0 0l0 -293.0z" clip-rule="nonzero"></path></clipPath><g clip-path="url(#p.0)"><path fill="#000000" fill-opacity="0.0" d="m0 0l649.6037 0l0 293.16797l-649.6037 0z" fill-rule="nonzero"></path><path fill="#3d85c6" d="m240.271 86.14085c62.13553 10.020035 62.13553 -10.020035 124.26437 -10.020035l0 -52.086006l-124.26437 0zm10.237869 -62.10604l0 -6.75263l123.415665 0l0 52.41275c-4.691223 0 -9.38916 0.36304474 -9.38916 0.36304474l0 -46.023163zm9.623062 -6.75263l0 -6.58926l124.48489 0l0 52.249382c-5.3461304 0 -10.692291 0.27228165 -10.692291 0.27228165l0 -45.932404z" fill-rule="nonzero"></path><path fill="#000000" fill-opacity="0.0" d="m240.271 24.034803l124.26437 0l0 52.086006c-62.128845 0 -62.128845 20.04007 -124.26437 10.020035zm10.237869 0l0 -6.75263l123.415665 0l0 52.41275c-4.691223 0 -9.38916 0.36304474 -9.38916 0.36304474m-104.40344 -52.775795l0 -6.58926l124.48489 0l0 52.249382c-5.3461304 0 -10.692291 0.27228165 -10.692291 0.27228165" fill-rule="nonzero"></path><path stroke="#000000" stroke-width="2.0" stroke-linejoin="round" stroke-linecap="butt" d="m240.271 24.034803l124.26437 0l0 52.086006c-62.128845 0 -62.128845 20.04007 -124.26437 10.020035zm10.237869 0l0 -6.75263l123.415665 0l0 52.41275c-4.691223 0 -9.38916 0.36304474 -9.38916 0.36304474m-104.40344 -52.775795l0 -6.58926l124.48489 0l0 52.249382c-5.3461304 0 -10.692291 0.27228165 -10.692291 0.27228165" fill-rule="nonzero"></path><path fill="#000000" fill-opacity="0.0" d="m240.271 86.14085c62.13553 10.020035 62.13553 -10.020035 124.26437 -10.020035l0 -6.0628433c0 0 4.697937 -0.36304474 9.38916 -0.36304474l0 -6.4803467c0 0 5.346161 -0.27228165 10.692291 -0.27228165l0 -52.249382l-124.48489 0l0 6.58926l-9.623062 0l0 6.75263l-10.237869 0z" fill-rule="nonzero"></path><path fill="#000000" d="m274.45947 47.587822l1.65625 -0.265625q0.140625 1.0 0.765625 1.53125q0.640625 0.515625 1.78125 0.515625q1.15625 0 1.703125 -0.46875q0.5625 -0.46875 0.5625 -1.09375q0 -0.5625 -0.484375 -0.890625q-0.34375 -0.21875 -1.703125 -0.5625q-1.84375 -0.46875 -2.5625 -0.796875q-0.703125 -0.34375 -1.078125 -0.9375q-0.359375 -0.609375 -0.359375 -1.328125q0 -0.65625 0.296875 -1.21875q0.3125 -0.5625 0.828125 -0.9375q0.390625 -0.28125 1.0625 -0.484375q0.671875 -0.203125 1.4375 -0.203125q1.171875 0 2.046875 0.34375q0.875 0.328125 1.28125 0.90625q0.421875 0.5625 0.578125 1.515625l-1.625 0.21875q-0.109375 -0.75 -0.65625 -1.171875q-0.53125 -0.4375 -1.5 -0.4375q-1.15625 0 -1.640625 0.390625q-0.484375 0.375 -0.484375 0.875q0 0.328125 0.203125 0.59375q0.203125 0.265625 0.640625 0.4375q0.25 0.09375 1.46875 0.4375q1.765625 0.46875 2.46875 0.765625q0.703125 0.296875 1.09375 0.875q0.40625 0.578125 0.40625 1.4375q0 0.828125 -0.484375 1.578125q-0.484375 0.734375 -1.40625 1.140625q-0.921875 0.390625 -2.078125 0.390625q-1.921875 0 -2.9375 -0.796875q-1.0 -0.796875 -1.28125 -2.359375zm10.0 2.9375l0 -13.59375l1.671875 0l0 4.875q1.171875 -1.359375 2.953125 -1.359375q1.09375 0 1.890625 0.4375q0.8125 0.421875 1.15625 1.1875q0.359375 0.765625 0.359375 2.203125l0 6.25l-1.671875 0l0 -6.25q0 -1.25 -0.546875 -1.8125q-0.546875 -0.578125 -1.53125 -0.578125q-0.75 0 -1.40625 0.390625q-0.640625 0.375 -0.921875 1.046875q-0.28125 0.65625 -0.28125 1.8125l0 5.390625l-1.671875 0zm16.813232 -1.21875q-0.9375 0.796875 -1.796875 1.125q-0.859375 0.3125 -1.84375 0.3125q-1.609375 0 -2.484375 -0.78125q-0.875 -0.796875 -0.875 -2.03125q0 -0.734375 0.328125 -1.328125q0.328125 -0.59375 0.859375 -0.953125q0.53125 -0.359375 1.203125 -0.546875q0.5 -0.140625 1.484375 -0.25q2.03125 -0.25 2.984375 -0.578125q0 -0.34375 0 -0.4375q0 -1.015625 -0.46875 -1.4375q-0.640625 -0.5625 -1.90625 -0.5625q-1.171875 0 -1.734375 0.40625q-0.5625 0.40625 -0.828125 1.46875l-1.640625 -0.234375q0.234375 -1.046875 0.734375 -1.6875q0.515625 -0.640625 1.46875 -0.984375q0.96875 -0.359375 2.25 -0.359375q1.265625 0 2.046875 0.296875q0.78125 0.296875 1.15625 0.75q0.375 0.453125 0.515625 1.140625q0.09375 0.421875 0.09375 1.53125l0 2.234375q0 2.328125 0.09375 2.953125q0.109375 0.609375 0.4375 1.171875l-1.75 0q-0.265625 -0.515625 -0.328125 -1.21875zm-0.140625 -3.71875q-0.90625 0.359375 -2.734375 0.625q-1.03125 0.140625 -1.453125 0.328125q-0.421875 0.1875 -0.65625 0.546875q-0.234375 0.359375 -0.234375 0.796875q0 0.671875 0.5 1.125q0.515625 0.4375 1.484375 0.4375q0.96875 0 1.71875 -0.421875q0.75 -0.4375 1.109375 -1.15625q0.265625 -0.578125 0.265625 -1.671875l0 -0.609375zm4.063202 4.9375l0 -9.859375l1.5 0l0 1.5q0.578125 -1.046875 1.0625 -1.375q0.484375 -0.34375 1.078125 -0.34375q0.84375 0 1.71875 0.546875l-0.578125 1.546875q-0.609375 -0.359375 -1.234375 -0.359375q-0.546875 0 -0.984375 0.328125q-0.421875 0.328125 -0.609375 0.90625q-0.28125 0.890625 -0.28125 1.953125l0 5.15625l-1.671875 0zm12.978302 -3.171875l1.71875 0.21875q-0.40625 1.5 -1.515625 2.34375q-1.09375 0.828125 -2.8125 0.828125q-2.15625 0 -3.421875 -1.328125q-1.265625 -1.328125 -1.265625 -3.734375q0 -2.484375 1.265625 -3.859375q1.28125 -1.375 3.328125 -1.375q1.984375 0 3.234375 1.34375q1.25 1.34375 1.25 3.796875q0 0.140625 -0.015625 0.4375l-7.34375 0q0.09375 1.625 0.921875 2.484375q0.828125 0.859375 2.0625 0.859375q0.90625 0 1.546875 -0.46875q0.65625 -0.484375 1.046875 -1.546875zm-5.484375 -2.703125l5.5 0q-0.109375 -1.234375 -0.625 -1.859375q-0.796875 -0.96875 -2.078125 -0.96875q-1.140625 0 -1.9375 0.78125q-0.78125 0.765625 -0.859375 2.046875zm15.500732 5.875l0 -1.25q-0.9375 1.46875 -2.75 1.46875q-1.171875 0 -2.171875 -0.640625q-0.984375 -0.65625 -1.53125 -1.8125q-0.53125 -1.171875 -0.53125 -2.6875q0 -1.46875 0.484375 -2.671875q0.5 -1.203125 1.46875 -1.84375q0.984375 -0.640625 2.203125 -0.640625q0.890625 0 1.578125 0.375q0.703125 0.375 1.140625 0.984375l0 -4.875l1.65625 0l0 13.59375l-1.546875 0zm-5.28125 -4.921875q0 1.890625 0.796875 2.828125q0.8125 0.9375 1.890625 0.9375q1.09375 0 1.859375 -0.890625q0.765625 -0.890625 0.765625 -2.734375q0 -2.015625 -0.78125 -2.953125q-0.78125 -0.953125 -1.921875 -0.953125q-1.109375 0 -1.859375 0.90625q-0.75 0.90625 -0.75 2.859375z" fill-rule="nonzero"></path><path fill="#000000" d="m262.68127 71.97845l0 -9.859375l1.5 0l0 1.5q0.578125 -1.046875 1.0625 -1.375q0.484375 -0.34375 1.078125 -0.34375q0.84375 0 1.71875 0.546875l-0.578125 1.546875q-0.609375 -0.359375 -1.234375 -0.359375q-0.546875 0 -0.984375 0.328125q-0.421875 0.328125 -0.609375 0.90625q-0.28125 0.890625 -0.28125 1.953125l0 5.15625l-1.671875 0zm12.978302 -3.171875l1.71875 0.21875q-0.40625 1.5 -1.515625 2.34375q-1.09375 0.828125 -2.8125 0.828125q-2.15625 0 -3.421875 -1.328125q-1.265625 -1.328125 -1.265625 -3.734375q0 -2.484375 1.265625 -3.859375q1.28125 -1.375 3.328125 -1.375q1.984375 0 3.234375 1.34375q1.25 1.34375 1.25 3.796875q0 0.140625 -0.015625 0.4375l-7.34375 0q0.09375 1.625 0.921875 2.484375q0.828125 0.859375 2.0625 0.859375q0.90625 0 1.546875 -0.46875q0.65625 -0.484375 1.046875 -1.546875zm-5.484375 -2.703125l5.5 0q-0.109375 -1.234375 -0.625 -1.859375q-0.796875 -0.96875 -2.078125 -0.96875q-1.140625 0 -1.9375 0.78125q-0.78125 0.765625 -0.859375 2.046875zm9.110077 9.65625l0 -13.640625l1.53125 0l0 1.28125q0.53125 -0.75 1.203125 -1.125q0.6875 -0.375 1.640625 -0.375q1.265625 0 2.234375 0.65625q0.96875 0.640625 1.453125 1.828125q0.5 1.1875 0.5 2.59375q0 1.515625 -0.546875 2.734375q-0.546875 1.203125 -1.578125 1.84375q-1.03125 0.640625 -2.171875 0.640625q-0.84375 0 -1.515625 -0.34375q-0.65625 -0.359375 -1.078125 -0.890625l0 4.796875l-1.671875 0zm1.515625 -8.65625q0 1.90625 0.765625 2.8125q0.78125 0.90625 1.875 0.90625q1.109375 0 1.890625 -0.9375q0.796875 -0.9375 0.796875 -2.921875q0 -1.875 -0.78125 -2.8125q-0.765625 -0.9375 -1.84375 -0.9375q-1.0625 0 -1.890625 1.0q-0.8125 1.0 -0.8125 2.890625zm8.235107 -0.046875q0 -2.734375 1.53125 -4.0625q1.265625 -1.09375 3.09375 -1.09375q2.03125 0 3.3125 1.34375q1.296875 1.328125 1.296875 3.671875q0 1.90625 -0.578125 3.0q-0.5625 1.078125 -1.65625 1.6875q-1.078125 0.59375 -2.375 0.59375q-2.0625 0 -3.34375 -1.328125q-1.28125 -1.328125 -1.28125 -3.8125zm1.71875 0q0 1.890625 0.828125 2.828125q0.828125 0.9375 2.078125 0.9375q1.25 0 2.0625 -0.9375q0.828125 -0.953125 0.828125 -2.890625q0 -1.828125 -0.828125 -2.765625q-0.828125 -0.9375 -2.0625 -0.9375q-1.25 0 -2.078125 0.9375q-0.828125 0.9375 -0.828125 2.828125zm8.610077 1.984375l1.65625 -0.265625q0.140625 1.0 0.765625 1.53125q0.640625 0.515625 1.78125 0.515625q1.15625 0 1.703125 -0.46875q0.5625 -0.46875 0.5625 -1.09375q0 -0.5625 -0.484375 -0.890625q-0.34375 -0.21875 -1.703125 -0.5625q-1.84375 -0.46875 -2.5625 -0.796875q-0.703125 -0.34375 -1.078125 -0.9375q-0.359375 -0.609375 -0.359375 -1.328125q0 -0.65625 0.296875 -1.21875q0.3125 -0.5625 0.828125 -0.9375q0.390625 -0.28125 1.0625 -0.484375q0.671875 -0.203125 1.4375 -0.203125q1.171875 0 2.046875 0.34375q0.875 0.328125 1.28125 0.90625q0.421875 0.5625 0.578125 1.515625l-1.625 0.21875q-0.109375 -0.75 -0.65625 -1.171875q-0.53125 -0.4375 -1.5 -0.4375q-1.15625 0 -1.640625 0.390625q-0.484375 0.375 -0.484375 0.875q0 0.328125 0.203125 0.59375q0.203125 0.265625 0.640625 0.4375q0.25 0.09375 1.46875 0.4375q1.765625 0.46875 2.46875 0.765625q0.703125 0.296875 1.09375 0.875q0.40625 0.578125 0.40625 1.4375q0 0.828125 -0.484375 1.578125q-0.484375 0.734375 -1.40625 1.140625q-0.921875 0.390625 -2.078125 0.390625q-1.921875 0 -2.9375 -0.796875q-1.0 -0.796875 -1.28125 -2.359375zm10.015625 -8.75l0 -1.90625l1.671875 0l0 1.90625l-1.671875 0zm0 11.6875l0 -9.859375l1.671875 0l0 9.859375l-1.671875 0zm7.7854614 -1.5l0.234375 1.484375q-0.703125 0.140625 -1.265625 0.140625q-0.90625 0 -1.40625 -0.28125q-0.5 -0.296875 -0.703125 -0.75q-0.203125 -0.46875 -0.203125 -1.984375l0 -5.65625l-1.234375 0l0 -1.3125l1.234375 0l0 -2.4375l1.65625 -1.0l0 3.4375l1.6875 0l0 1.3125l-1.6875 0l0 5.75q0 0.71875 0.078125 0.921875q0.09375 0.203125 0.296875 0.328125q0.203125 0.125 0.578125 0.125q0.265625 0 0.734375 -0.078125zm0.9020386 -3.421875q0 -2.734375 1.53125 -4.0625q1.265625 -1.09375 3.09375 -1.09375q2.03125 0 3.3125 1.34375q1.296875 1.328125 1.296875 3.671875q0 1.90625 -0.578125 3.0q-0.5625 1.078125 -1.65625 1.6875q-1.078125 0.59375 -2.375 0.59375q-2.0625 0 -3.34375 -1.328125q-1.28125 -1.328125 -1.28125 -3.8125zm1.71875 0q0 1.890625 0.828125 2.828125q0.828125 0.9375 2.078125 0.9375q1.25 0 2.0625 -0.9375q0.828125 -0.953125 0.828125 -2.890625q0 -1.828125 -0.828125 -2.765625q-0.828125 -0.9375 -2.0625 -0.9375q-1.25 0 -2.078125 0.9375q-0.828125 0.9375 -0.828125 2.828125zm9.266357 4.921875l0 -9.859375l1.5 0l0 1.5q0.578125 -1.046875 1.0625 -1.375q0.484375 -0.34375 1.078125 -0.34375q0.84375 0 1.71875 0.546875l-0.578125 1.546875q-0.609375 -0.359375 -1.234375 -0.359375q-0.546875 0 -0.984375 0.328125q-0.421875 0.328125 -0.609375 0.90625q-0.28125 0.890625 -0.28125 1.953125l0 5.15625l-1.671875 0zm6.150177 3.796875l-0.171875 -1.5625q0.546875 0.140625 0.953125 0.140625q0.546875 0 0.875 -0.1875q0.34375 -0.1875 0.5625 -0.515625q0.15625 -0.25 0.5 -1.25q0.046875 -0.140625 0.15625 -0.40625l-3.734375 -9.875l1.796875 0l2.046875 5.71875q0.40625 1.078125 0.71875 2.28125q0.28125 -1.15625 0.6875 -2.25l2.09375 -5.75l1.671875 0l-3.75 10.03125q-0.59375 1.625 -0.9375 2.234375q-0.4375 0.828125 -1.015625 1.203125q-0.578125 0.390625 -1.375 0.390625q-0.484375 0 -1.078125 -0.203125z" fill-rule="nonzero"></path><path fill="#9fc5e8" d="m9.758531 250.0621c62.135536 10.02002 62.135536 -10.020035 124.26439 -10.020035l0 -52.086l-124.26439 0zm10.237861 -62.106033l0 -6.75264l123.41569 0l0 52.41275c-4.6912384 0 -9.38916 0.36305237 -9.38916 0.36305237l0 -46.023163zm9.6230545 -6.75264l0 -6.589264l124.48491 0l0 52.24939c-5.3461456 0 -10.692276 0.27227783 -10.692276 0.27227783l0 -45.932404z" fill-rule="nonzero"></path><path fill="#000000" fill-opacity="0.0" d="m9.758531 187.95607l124.26439 0l0 52.086c-62.128853 0 -62.128853 20.040054 -124.26439 10.020035zm10.237861 0l0 -6.75264l123.41569 0l0 52.41275c-4.6912384 0 -9.38916 0.36305237 -9.38916 0.36305237m-104.40347 -52.775803l0 -6.589264l124.48491 0l0 52.24939c-5.3461456 0 -10.692276 0.27227783 -10.692276 0.27227783" fill-rule="nonzero"></path><path stroke="#000000" stroke-width="2.0" stroke-linejoin="round" stroke-linecap="butt" d="m9.758531 187.95607l124.26439 0l0 52.086c-62.128853 0 -62.128853 20.040054 -124.26439 10.020035zm10.237861 0l0 -6.75264l123.41569 0l0 52.41275c-4.6912384 0 -9.38916 0.36305237 -9.38916 0.36305237m-104.40347 -52.775803l0 -6.589264l124.48491 0l0 52.24939c-5.3461456 0 -10.692276 0.27227783 -10.692276 0.27227783" fill-rule="nonzero"></path><path fill="#000000" fill-opacity="0.0" d="m9.758531 250.0621c62.135536 10.02002 62.135536 -10.020035 124.26439 -10.020035l0 -6.0628357c0 0 4.6979218 -0.36305237 9.38916 -0.36305237l0 -6.4803467c0 0 5.3461304 -0.27227783 10.692276 -0.27227783l0 -52.24939l-124.48491 0l0 6.589264l-9.6230545 0l0 6.75264l-10.237861 0z" fill-rule="nonzero"></path><path fill="#000000" d="m30.781872 225.17316l0 -1.25q-0.9375 1.46875 -2.75 1.46875q-1.171875 0 -2.171875 -0.640625q-0.984375 -0.65625 -1.53125 -1.8125q-0.53125 -1.171875 -0.53125 -2.6875q0 -1.46875 0.484375 -2.671875q0.5 -1.203125 1.46875 -1.84375q0.984375 -0.640625 2.203125 -0.640625q0.890625 0 1.578125 0.375q0.703125 0.375 1.140625 0.984375l0 -4.875l1.65625 0l0 13.59375l-1.546875 0zm-5.28125 -4.921875q0 1.890625 0.796875 2.828125q0.8125 0.9375 1.890625 0.9375q1.09375 0 1.859375 -0.890625q0.765625 -0.890625 0.765625 -2.734375q0 -2.015625 -0.78125 -2.953125q-0.78125 -0.953125 -1.921875 -0.953125q-1.109375 0 -1.859375 0.90625q-0.75 0.90625 -0.75 2.859375zm16.016342 1.75l1.71875 0.21875q-0.40625 1.5 -1.515625 2.34375q-1.09375 0.828125 -2.8125 0.828125q-2.15625 0 -3.421875 -1.328125q-1.265625 -1.328125 -1.265625 -3.734375q0 -2.484375 1.265625 -3.859375q1.28125 -1.375 3.328125 -1.375q1.984375 0 3.234375 1.34375q1.25 1.34375 1.25 3.796875q0 0.140625 -0.015625 0.4375l-7.34375 0q0.09375 1.625 0.921875 2.484375q0.828125 0.859375 2.0625 0.859375q0.90625 0 1.546875 -0.46875q0.65625 -0.484375 1.046875 -1.546875zm-5.484375 -2.703125l5.5 0q-0.109375 -1.234375 -0.625 -1.859375q-0.796875 -0.96875 -2.078125 -0.96875q-1.140625 0 -1.9375 0.78125q-0.78125 0.765625 -0.859375 2.046875zm11.844467 5.875l-3.75 -9.859375l1.765625 0l2.125 5.90625q0.34375 0.953125 0.625 1.984375q0.21875 -0.78125 0.625 -1.875l2.1875 -6.015625l1.71875 0l-3.734375 9.859375l-1.5625 0zm13.34375 -3.171875l1.71875 0.21875q-0.40625 1.5 -1.515625 2.34375q-1.09375 0.828125 -2.8125 0.828125q-2.15625 0 -3.421875 -1.328125q-1.265625 -1.328125 -1.265625 -3.734375q0 -2.484375 1.265625 -3.859375q1.28125 -1.375 3.328125 -1.375q1.984375 0 3.234375 1.34375q1.25 1.34375 1.25 3.796875q0 0.140625 -0.015625 0.4375l-7.34375 0q0.09375 1.625 0.921875 2.484375q0.828125 0.859375 2.0625 0.859375q0.90625 0 1.546875 -0.46875q0.65625 -0.484375 1.046875 -1.546875zm-5.484375 -2.703125l5.5 0q-0.109375 -1.234375 -0.625 -1.859375q-0.796875 -0.96875 -2.078125 -0.96875q-1.140625 0 -1.9375 0.78125q-0.78125 0.765625 -0.859375 2.046875zm9.078846 5.875l0 -13.59375l1.671875 0l0 13.59375l-1.671875 0zm3.5510712 -4.921875q0 -2.734375 1.53125 -4.0625q1.265625 -1.09375 3.09375 -1.09375q2.03125 0 3.3125 1.34375q1.296875 1.328125 1.296875 3.671875q0 1.90625 -0.578125 3.0q-0.5625 1.078125 -1.65625 1.6875q-1.078125 0.59375 -2.375 0.59375q-2.0625 0 -3.34375 -1.328125q-1.28125 -1.328125 -1.28125 -3.8125zm1.71875 0q0 1.890625 0.828125 2.828125q0.828125 0.9375 2.078125 0.9375q1.25 0 2.0625 -0.9375q0.828125 -0.953125 0.828125 -2.890625q0 -1.828125 -0.828125 -2.765625q-0.828125 -0.9375 -2.0625 -0.9375q-1.25 0 -2.078125 0.9375q-0.828125 0.9375 -0.828125 2.828125zm9.281967 8.703125l0 -13.640625l1.53125 0l0 1.28125q0.53125 -0.75 1.203125 -1.125q0.6875 -0.375 1.640625 -0.375q1.265625 0 2.234375 0.65625q0.96875 0.640625 1.453125 1.828125q0.5 1.1875 0.5 2.59375q0 1.515625 -0.546875 2.734375q-0.546875 1.203125 -1.578125 1.84375q-1.03125 0.640625 -2.171875 0.640625q-0.84375 0 -1.515625 -0.34375q-0.65625 -0.359375 -1.078125 -0.890625l0 4.796875l-1.671875 0zm1.515625 -8.65625q0 1.90625 0.765625 2.8125q0.78125 0.90625 1.875 0.90625q1.109375 0 1.890625 -0.9375q0.796875 -0.9375 0.796875 -2.921875q0 -1.875 -0.78125 -2.8125q-0.765625 -0.9375 -1.84375 -0.9375q-1.0625 0 -1.890625 1.0q-0.8125 1.0 -0.8125 2.890625zm15.610092 1.703125l1.71875 0.21875q-0.40625 1.5 -1.515625 2.34375q-1.09375 0.828125 -2.8125 0.828125q-2.15625 0 -3.421875 -1.328125q-1.265625 -1.328125 -1.265625 -3.734375q0 -2.484375 1.265625 -3.859375q1.28125 -1.375 3.328125 -1.375q1.984375 0 3.234375 1.34375q1.25 1.34375 1.25 3.796875q0 0.140625 -0.015625 0.4375l-7.34375 0q0.09375 1.625 0.921875 2.484375q0.828125 0.859375 2.0625 0.859375q0.90625 0 1.546875 -0.46875q0.65625 -0.484375 1.046875 -1.546875zm-5.484375 -2.703125l5.5 0q-0.109375 -1.234375 -0.625 -1.859375q-0.796875 -0.96875 -2.078125 -0.96875q-1.140625 0 -1.9375 0.78125q-0.78125 0.765625 -0.859375 2.046875zm9.094467 5.875l0 -9.859375l1.5 0l0 1.5q0.578125 -1.046875 1.0625 -1.375q0.484375 -0.34375 1.078125 -0.34375q0.84375 0 1.71875 0.546875l-0.578125 1.546875q-0.609375 -0.359375 -1.234375 -0.359375q-0.546875 0 -0.984375 0.328125q-0.421875 0.328125 -0.609375 0.90625q-0.28125 0.890625 -0.28125 1.953125l0 5.15625l-1.671875 0zm17.23973 0l-1.671875 0l0 -10.640625q-0.59375 0.578125 -1.578125 1.15625q-0.984375 0.5625 -1.765625 0.859375l0 -1.625q1.40625 -0.65625 2.453125 -1.59375q1.046875 -0.9375 1.484375 -1.8125l1.078125 0l0 13.65625z" fill-rule="nonzero"></path><path fill="#000000" fill-opacity="0.0" d="m187.04924 149.66751l0 110.48819l-32.944885 0l0 -110.48819z" fill-rule="nonzero"></path><path fill="#000000" d="m167.06117 171.36707l7.875 0l0 2.953125q0 0.890625 -0.25 1.4375q-0.234375 0.546875 -0.734375 0.859375q-0.484375 0.3125 -1.03125 0.3125q-0.5 0 -0.953125 -0.28125q-0.4375 -0.265625 -0.71875 -0.828125q-0.203125 0.71875 -0.71875 1.09375q-0.5 0.390625 -1.1875 0.390625q-0.546875 0 -1.03125 -0.234375q-0.46875 -0.234375 -0.734375 -0.578125q-0.25 -0.34375 -0.390625 -0.859375q-0.125 -0.515625 -0.125 -1.265625l0 -3.0zm4.5625 1.03125l0 1.703125q0 0.703125 0.09375 1.0q0.125 0.390625 0.390625 0.59375q0.28125 0.203125 0.6875 0.203125q0.390625 0 0.6875 -0.1875q0.296875 -0.1875 0.40625 -0.546875q0.109375 -0.34375 0.109375 -1.1875l0 -1.578125l-2.375 0zm-3.640625 0l0 1.96875q0 0.5 0.046875 0.703125q0.0625 0.359375 0.203125 0.59375q0.15625 0.25 0.4375 0.40625q0.296875 0.15625 0.671875 0.15625q0.4375 0 0.765625 -0.234375q0.328125 -0.21875 0.453125 -0.625q0.140625 -0.390625 0.140625 -1.140625l0 -1.828125l-2.71875 0zm-0.921875 5.9826355l5.703125 0l0 0.859375l-0.859375 0q0.609375 0.34375 0.796875 0.625q0.1875 0.28125 0.1875 0.609375q0 0.5 -0.3125 1.0l-0.890625 -0.328125q0.203125 -0.359375 0.203125 -0.71875q0 -0.3125 -0.1875 -0.5625q-0.1875 -0.25 -0.53125 -0.359375q-0.515625 -0.15625 -1.125 -0.15625l-2.984375 0l0 -0.96875zm0.703125 7.2829895q-0.453125 -0.546875 -0.640625 -1.046875q-0.1875 -0.484375 -0.1875 -1.0625q0 -0.9375 0.453125 -1.453125q0.46875 -0.5 1.171875 -0.5q0.421875 0 0.765625 0.1875q0.34375 0.203125 0.546875 0.5q0.21875 0.3125 0.328125 0.703125q0.078125 0.28125 0.140625 0.859375q0.140625 1.171875 0.34375 1.71875q0.1875 0.015625 0.25 0.015625q0.59375 0 0.828125 -0.28125q0.328125 -0.359375 0.328125 -1.09375q0 -0.6875 -0.234375 -1.015625q-0.234375 -0.3125 -0.84375 -0.46875l0.125 -0.953125q0.609375 0.125 0.984375 0.421875q0.375 0.296875 0.5625 0.859375q0.203125 0.5625 0.203125 1.296875q0 0.734375 -0.171875 1.1875q-0.171875 0.453125 -0.4375 0.65625q-0.25 0.21875 -0.640625 0.3125q-0.25 0.046875 -0.90625 0.046875l-1.28125 0q-1.34375 0 -1.703125 0.0625q-0.359375 0.0625 -0.6875 0.25l0 -1.015625q0.296875 -0.15625 0.703125 -0.1875zm2.15625 -0.09375q-0.21875 -0.515625 -0.359375 -1.578125q-0.09375 -0.59375 -0.203125 -0.84375q-0.09375 -0.234375 -0.3125 -0.375q-0.203125 -0.140625 -0.453125 -0.140625q-0.390625 0 -0.65625 0.296875q-0.25 0.296875 -0.25 0.859375q0 0.5625 0.25 0.984375q0.25 0.4375 0.671875 0.65625q0.328125 0.140625 0.96875 0.140625l0.34375 0zm-2.859375 2.2858734l5.703125 0l0 0.875l-0.8125 0q0.9375 0.625 0.9375 1.8125q0 0.515625 -0.1875 0.953125q-0.171875 0.4375 -0.484375 0.640625q-0.296875 0.21875 -0.703125 0.3125q-0.28125 0.046875 -0.953125 0.046875l-3.5 0l0 -0.96875l3.46875 0q0.59375 0 0.875 -0.109375q0.296875 -0.109375 0.46875 -0.40625q0.1875 -0.28125 0.1875 -0.671875q0 -0.609375 -0.390625 -1.0625q-0.390625 -0.453125 -1.5 -0.453125l-3.109375 0l0 -0.96875zm2.09375 9.660873l-0.125 0.9375q-0.984375 -0.140625 -1.546875 -0.796875q-0.546875 -0.640625 -0.546875 -1.5625q0 -1.171875 0.765625 -1.890625q0.765625 -0.703125 2.1875 -0.703125q0.921875 0 1.609375 0.296875q0.703125 0.3125 1.046875 0.9375q0.34375 0.625 0.34375 1.359375q0 0.921875 -0.46875 1.515625q-0.46875 0.59375 -1.328125 0.765625l-0.140625 -0.953125q0.5625 -0.125 0.84375 -0.46875q0.296875 -0.34375 0.296875 -0.828125q0 -0.71875 -0.53125 -1.1875q-0.515625 -0.453125 -1.640625 -0.453125q-1.15625 0 -1.671875 0.4375q-0.515625 0.4375 -0.515625 1.15625q0 0.5625 0.34375 0.9375q0.34375 0.390625 1.078125 0.5zm-2.09375 1.59375l7.875 0l0 0.96875l-2.828125 0q0.78125 0.6875 0.78125 1.71875q0 0.625 -0.25 1.09375q-0.25 0.46875 -0.6875 0.671875q-0.4375 0.203125 -1.28125 0.203125l-3.609375 0l0 -0.96875l3.609375 0q0.734375 0 1.0625 -0.3125q0.328125 -0.3125 0.328125 -0.890625q0 -0.4375 -0.21875 -0.8125q-0.21875 -0.375 -0.609375 -0.546875q-0.375 -0.15625 -1.046875 -0.15625l-3.125 0l0 -0.96875zm1.84375 9.832748l-0.125 1.0q-0.875 -0.234375 -1.359375 -0.875q-0.484375 -0.640625 -0.484375 -1.625q0 -1.25 0.765625 -1.984375q0.765625 -0.734375 2.15625 -0.734375q1.453125 0 2.234375 0.734375q0.796875 0.75 0.796875 1.921875q0 1.15625 -0.78125 1.875q-0.765625 0.71875 -2.1875 0.71875q-0.078125 0 -0.25 0l0 -4.25q-0.9375 0.046875 -1.4375 0.515625q-0.5 0.484375 -0.5 1.203125q0 0.53125 0.265625 0.90625q0.28125 0.375 0.90625 0.59375zm1.5625 -3.171875l0 3.1875q0.71875 -0.0625 1.078125 -0.359375q0.546875 -0.46875 0.546875 -1.203125q0 -0.671875 -0.453125 -1.125q-0.4375 -0.453125 -1.171875 -0.5zm-1.703125 4.8171234l0.15625 0.953125q-0.578125 0.078125 -0.890625 0.4375q-0.296875 0.375 -0.296875 1.03125q0 0.671875 0.265625 0.984375q0.265625 0.328125 0.640625 0.328125q0.328125 0 0.515625 -0.28125q0.125 -0.203125 0.328125 -0.984375q0.265625 -1.0625 0.453125 -1.484375q0.203125 -0.40625 0.546875 -0.625q0.34375 -0.203125 0.765625 -0.203125q0.390625 0 0.703125 0.171875q0.328125 0.171875 0.546875 0.484375q0.171875 0.21875 0.28125 0.609375q0.109375 0.390625 0.109375 0.828125q0 0.671875 -0.1875 1.171875q-0.1875 0.515625 -0.53125 0.75q-0.328125 0.25 -0.875 0.34375l-0.125 -0.9375q0.4375 -0.078125 0.671875 -0.390625q0.25 -0.296875 0.25 -0.859375q0 -0.671875 -0.21875 -0.953125q-0.21875 -0.28125 -0.515625 -0.28125q-0.1875 0 -0.328125 0.109375q-0.15625 0.125 -0.265625 0.375q-0.046875 0.140625 -0.25 0.859375q-0.265625 1.015625 -0.4375 1.421875q-0.171875 0.40625 -0.515625 0.640625q-0.328125 0.234375 -0.828125 0.234375q-0.484375 0 -0.90625 -0.28125q-0.421875 -0.28125 -0.65625 -0.8125q-0.234375 -0.53125 -0.234375 -1.203125q0 -1.109375 0.453125 -1.703125q0.46875 -0.578125 1.375 -0.734375zm-1.703125 12.038773l0 -0.96875l6.15625 0q-0.328125 -0.34375 -0.671875 -0.90625q-0.328125 -0.5625 -0.484375 -1.015625l0.9375 0q0.375 0.8125 0.90625 1.40625q0.546875 0.609375 1.0625 0.859375l0 0.625l-7.90625 0zm0 2.8327484l1.09375 0l0 1.09375l-1.09375 0l0 -1.09375zm0 2.9606476l1.09375 0l0 1.09375l-1.09375 0l0 -1.09375zm0 5.640045l5.703125 0l0 0.875l-0.8125 0q0.9375 0.625 0.9375 1.8125q0 0.515625 -0.1875 0.953125q-0.171875 0.4375 -0.484375 0.640625q-0.296875 0.21875 -0.703125 0.3125q-0.28125 0.046875 -0.953125 0.046875l-3.5 0l0 -0.96875l3.46875 0q0.59375 0 0.875 -0.109375q0.296875 -0.109375 0.46875 -0.40625q0.1875 -0.28125 0.1875 -0.671875q0 -0.609375 -0.390625 -1.0625q-0.390625 -0.453125 -1.5 -0.453125l-3.109375 0l0 -0.96875z" fill-rule="nonzero"></path><path fill="#9fc5e8" d="m236.9462 250.0621c62.13553 10.02002 62.13553 -10.020035 124.26437 -10.020035l0 -52.086l-124.26437 0zm10.237854 -62.106033l0 -6.75264l123.41568 0l0 52.41275c-4.691223 0 -9.38916 0.36305237 -9.38916 0.36305237l0 -46.023163zm9.623047 -6.75264l0 -6.589264l124.484924 0l0 52.24939c-5.3461304 0 -10.692291 0.27227783 -10.692291 0.27227783l0 -45.932404z" fill-rule="nonzero"></path><path fill="#000000" fill-opacity="0.0" d="m236.9462 187.95607l124.26437 0l0 52.086c-62.128845 0 -62.128845 20.040054 -124.26437 10.020035zm10.237854 0l0 -6.75264l123.41568 0l0 52.41275c-4.691223 0 -9.38916 0.36305237 -9.38916 0.36305237m-104.40347 -52.775803l0 -6.589264l124.484924 0l0 52.24939c-5.3461304 0 -10.692291 0.27227783 -10.692291 0.27227783" fill-rule="nonzero"></path><path stroke="#000000" stroke-width="2.0" stroke-linejoin="round" stroke-linecap="butt" d="m236.9462 187.95607l124.26437 0l0 52.086c-62.128845 0 -62.128845 20.040054 -124.26437 10.020035zm10.237854 0l0 -6.75264l123.41568 0l0 52.41275c-4.691223 0 -9.38916 0.36305237 -9.38916 0.36305237m-104.40347 -52.775803l0 -6.589264l124.484924 0l0 52.24939c-5.3461304 0 -10.692291 0.27227783 -10.692291 0.27227783" fill-rule="nonzero"></path><path fill="#000000" fill-opacity="0.0" d="m236.9462 250.0621c62.13553 10.02002 62.13553 -10.020035 124.26437 -10.020035l0 -6.0628357c0 0 4.697937 -0.36305237 9.38916 -0.36305237l0 -6.4803467c0 0 5.346161 -0.27227783 10.692291 -0.27227783l0 -52.24939l-124.484924 0l0 6.589264l-9.623047 0l0 6.75264l-10.237854 0z" fill-rule="nonzero"></path><path fill="#000000" d="m257.96954 225.17316l0 -1.25q-0.9375 1.46875 -2.75 1.46875q-1.171875 0 -2.171875 -0.640625q-0.984375 -0.65625 -1.53125 -1.8125q-0.53125 -1.171875 -0.53125 -2.6875q0 -1.46875 0.484375 -2.671875q0.5 -1.203125 1.46875 -1.84375q0.984375 -0.640625 2.203125 -0.640625q0.890625 0 1.578125 0.375q0.703125 0.375 1.140625 0.984375l0 -4.875l1.65625 0l0 13.59375l-1.546875 0zm-5.28125 -4.921875q0 1.890625 0.796875 2.828125q0.8125 0.9375 1.890625 0.9375q1.09375 0 1.859375 -0.890625q0.765625 -0.890625 0.765625 -2.734375q0 -2.015625 -0.78125 -2.953125q-0.78125 -0.953125 -1.921875 -0.953125q-1.109375 0 -1.859375 0.90625q-0.75 0.90625 -0.75 2.859375zm16.016327 1.75l1.71875 0.21875q-0.40625 1.5 -1.515625 2.34375q-1.09375 0.828125 -2.8125 0.828125q-2.15625 0 -3.421875 -1.328125q-1.265625 -1.328125 -1.265625 -3.734375q0 -2.484375 1.265625 -3.859375q1.28125 -1.375 3.328125 -1.375q1.984375 0 3.234375 1.34375q1.25 1.34375 1.25 3.796875q0 0.140625 -0.015625 0.4375l-7.34375 0q0.09375 1.625 0.921875 2.484375q0.828125 0.859375 2.0625 0.859375q0.90625 0 1.546875 -0.46875q0.65625 -0.484375 1.046875 -1.546875zm-5.484375 -2.703125l5.5 0q-0.109375 -1.234375 -0.625 -1.859375q-0.796875 -0.96875 -2.078125 -0.96875q-1.140625 0 -1.9375 0.78125q-0.78125 0.765625 -0.859375 2.046875zm11.844482 5.875l-3.75 -9.859375l1.765625 0l2.125 5.90625q0.34375 0.953125 0.625 1.984375q0.21875 -0.78125 0.625 -1.875l2.1875 -6.015625l1.71875 0l-3.734375 9.859375l-1.5625 0zm13.34375 -3.171875l1.71875 0.21875q-0.40625 1.5 -1.515625 2.34375q-1.09375 0.828125 -2.8125 0.828125q-2.15625 0 -3.421875 -1.328125q-1.265625 -1.328125 -1.265625 -3.734375q0 -2.484375 1.265625 -3.859375q1.28125 -1.375 3.328125 -1.375q1.984375 0 3.234375 1.34375q1.25 1.34375 1.25 3.796875q0 0.140625 -0.015625 0.4375l-7.34375 0q0.09375 1.625 0.921875 2.484375q0.828125 0.859375 2.0625 0.859375q0.90625 0 1.546875 -0.46875q0.65625 -0.484375 1.046875 -1.546875zm-5.484375 -2.703125l5.5 0q-0.109375 -1.234375 -0.625 -1.859375q-0.796875 -0.96875 -2.078125 -0.96875q-1.140625 0 -1.9375 0.78125q-0.78125 0.765625 -0.859375 2.046875zm9.078827 5.875l0 -13.59375l1.671875 0l0 13.59375l-1.671875 0zm3.5510864 -4.921875q0 -2.734375 1.53125 -4.0625q1.265625 -1.09375 3.09375 -1.09375q2.03125 0 3.3125 1.34375q1.296875 1.328125 1.296875 3.671875q0 1.90625 -0.578125 3.0q-0.5625 1.078125 -1.65625 1.6875q-1.078125 0.59375 -2.375 0.59375q-2.0625 0 -3.34375 -1.328125q-1.28125 -1.328125 -1.28125 -3.8125zm1.71875 0q0 1.890625 0.828125 2.828125q0.828125 0.9375 2.078125 0.9375q1.25 0 2.0625 -0.9375q0.828125 -0.953125 0.828125 -2.890625q0 -1.828125 -0.828125 -2.765625q-0.828125 -0.9375 -2.0625 -0.9375q-1.25 0 -2.078125 0.9375q-0.828125 0.9375 -0.828125 2.828125zm9.281952 8.703125l0 -13.640625l1.53125 0l0 1.28125q0.53125 -0.75 1.203125 -1.125q0.6875 -0.375 1.640625 -0.375q1.265625 0 2.234375 0.65625q0.96875 0.640625 1.453125 1.828125q0.5 1.1875 0.5 2.59375q0 1.515625 -0.546875 2.734375q-0.546875 1.203125 -1.578125 1.84375q-1.03125 0.640625 -2.171875 0.640625q-0.84375 0 -1.515625 -0.34375q-0.65625 -0.359375 -1.078125 -0.890625l0 4.796875l-1.671875 0zm1.515625 -8.65625q0 1.90625 0.765625 2.8125q0.78125 0.90625 1.875 0.90625q1.109375 0 1.890625 -0.9375q0.796875 -0.9375 0.796875 -2.921875q0 -1.875 -0.78125 -2.8125q-0.765625 -0.9375 -1.84375 -0.9375q-1.0625 0 -1.890625 1.0q-0.8125 1.0 -0.8125 2.890625zm15.610107 1.703125l1.71875 0.21875q-0.40625 1.5 -1.515625 2.34375q-1.09375 0.828125 -2.8125 0.828125q-2.15625 0 -3.421875 -1.328125q-1.265625 -1.328125 -1.265625 -3.734375q0 -2.484375 1.265625 -3.859375q1.28125 -1.375 3.328125 -1.375q1.984375 0 3.234375 1.34375q1.25 1.34375 1.25 3.796875q0 0.140625 -0.015625 0.4375l-7.34375 0q0.09375 1.625 0.921875 2.484375q0.828125 0.859375 2.0625 0.859375q0.90625 0 1.546875 -0.46875q0.65625 -0.484375 1.046875 -1.546875zm-5.484375 -2.703125l5.5 0q-0.109375 -1.234375 -0.625 -1.859375q-0.796875 -0.96875 -2.078125 -0.96875q-1.140625 0 -1.9375 0.78125q-0.78125 0.765625 -0.859375 2.046875zm9.094452 5.875l0 -9.859375l1.5 0l0 1.5q0.578125 -1.046875 1.0625 -1.375q0.484375 -0.34375 1.078125 -0.34375q0.84375 0 1.71875 0.546875l-0.578125 1.546875q-0.609375 -0.359375 -1.234375 -0.359375q-0.546875 0 -0.984375 0.328125q-0.421875 0.328125 -0.609375 0.90625q-0.28125 0.890625 -0.28125 1.953125l0 5.15625l-1.671875 0zm19.724121 -1.609375l0 1.609375l-8.984375 0q-0.015625 -0.609375 0.1875 -1.15625q0.34375 -0.921875 1.09375 -1.8125q0.765625 -0.890625 2.1875 -2.0625q2.21875 -1.8125 3.0 -2.875q0.78125 -1.0625 0.78125 -2.015625q0 -0.984375 -0.71875 -1.671875q-0.703125 -0.6875 -1.84375 -0.6875q-1.203125 0 -1.9375 0.734375q-0.71875 0.71875 -0.71875 2.0l-1.71875 -0.171875q0.171875 -1.921875 1.328125 -2.921875q1.15625 -1.015625 3.09375 -1.015625q1.953125 0 3.09375 1.09375q1.140625 1.078125 1.140625 2.6875q0 0.8125 -0.34375 1.609375q-0.328125 0.78125 -1.109375 1.65625q-0.765625 0.859375 -2.5625 2.390625q-1.5 1.265625 -1.9375 1.71875q-0.421875 0.4375 -0.703125 0.890625l6.671875 0z" fill-rule="nonzero"></path><path fill="#000000" fill-opacity="0.0" d="m414.2369 149.66751l0 110.48819l-32.944885 0l0 -110.48819z" fill-rule="nonzero"></path><path fill="#000000" d="m394.24884 171.36707l7.875 0l0 2.953125q0 0.890625 -0.25 1.4375q-0.234375 0.546875 -0.734375 0.859375q-0.484375 0.3125 -1.03125 0.3125q-0.5 0 -0.953125 -0.28125q-0.4375 -0.265625 -0.71875 -0.828125q-0.203125 0.71875 -0.71875 1.09375q-0.5 0.390625 -1.1875 0.390625q-0.546875 0 -1.03125 -0.234375q-0.46875 -0.234375 -0.734375 -0.578125q-0.25 -0.34375 -0.390625 -0.859375q-0.125 -0.515625 -0.125 -1.265625l0 -3.0zm4.5625 1.03125l0 1.703125q0 0.703125 0.09375 1.0q0.125 0.390625 0.390625 0.59375q0.28125 0.203125 0.6875 0.203125q0.390625 0 0.6875 -0.1875q0.296875 -0.1875 0.40625 -0.546875q0.109375 -0.34375 0.109375 -1.1875l0 -1.578125l-2.375 0zm-3.640625 0l0 1.96875q0 0.5 0.046875 0.703125q0.0625 0.359375 0.203125 0.59375q0.15625 0.25 0.4375 0.40625q0.296875 0.15625 0.671875 0.15625q0.4375 0 0.765625 -0.234375q0.328125 -0.21875 0.453125 -0.625q0.140625 -0.390625 0.140625 -1.140625l0 -1.828125l-2.71875 0zm-0.921875 5.9826355l5.703125 0l0 0.859375l-0.859375 0q0.609375 0.34375 0.796875 0.625q0.1875 0.28125 0.1875 0.609375q0 0.5 -0.3125 1.0l-0.890625 -0.328125q0.203125 -0.359375 0.203125 -0.71875q0 -0.3125 -0.1875 -0.5625q-0.1875 -0.25 -0.53125 -0.359375q-0.515625 -0.15625 -1.125 -0.15625l-2.984375 0l0 -0.96875zm0.703125 7.2829895q-0.453125 -0.546875 -0.640625 -1.046875q-0.1875 -0.484375 -0.1875 -1.0625q0 -0.9375 0.453125 -1.453125q0.46875 -0.5 1.171875 -0.5q0.421875 0 0.765625 0.1875q0.34375 0.203125 0.546875 0.5q0.21875 0.3125 0.328125 0.703125q0.078125 0.28125 0.140625 0.859375q0.140625 1.171875 0.34375 1.71875q0.1875 0.015625 0.25 0.015625q0.59375 0 0.828125 -0.28125q0.328125 -0.359375 0.328125 -1.09375q0 -0.6875 -0.234375 -1.015625q-0.234375 -0.3125 -0.84375 -0.46875l0.125 -0.953125q0.609375 0.125 0.984375 0.421875q0.375 0.296875 0.5625 0.859375q0.203125 0.5625 0.203125 1.296875q0 0.734375 -0.171875 1.1875q-0.171875 0.453125 -0.4375 0.65625q-0.25 0.21875 -0.640625 0.3125q-0.25 0.046875 -0.90625 0.046875l-1.28125 0q-1.34375 0 -1.703125 0.0625q-0.359375 0.0625 -0.6875 0.25l0 -1.015625q0.296875 -0.15625 0.703125 -0.1875zm2.15625 -0.09375q-0.21875 -0.515625 -0.359375 -1.578125q-0.09375 -0.59375 -0.203125 -0.84375q-0.09375 -0.234375 -0.3125 -0.375q-0.203125 -0.140625 -0.453125 -0.140625q-0.390625 0 -0.65625 0.296875q-0.25 0.296875 -0.25 0.859375q0 0.5625 0.25 0.984375q0.25 0.4375 0.671875 0.65625q0.328125 0.140625 0.96875 0.140625l0.34375 0zm-2.859375 2.2858734l5.703125 0l0 0.875l-0.8125 0q0.9375 0.625 0.9375 1.8125q0 0.515625 -0.1875 0.953125q-0.171875 0.4375 -0.484375 0.640625q-0.296875 0.21875 -0.703125 0.3125q-0.28125 0.046875 -0.953125 0.046875l-3.5 0l0 -0.96875l3.46875 0q0.59375 0 0.875 -0.109375q0.296875 -0.109375 0.46875 -0.40625q0.1875 -0.28125 0.1875 -0.671875q0 -0.609375 -0.390625 -1.0625q-0.390625 -0.453125 -1.5 -0.453125l-3.109375 0l0 -0.96875zm2.09375 9.660873l-0.125 0.9375q-0.984375 -0.140625 -1.546875 -0.796875q-0.546875 -0.640625 -0.546875 -1.5625q0 -1.171875 0.765625 -1.890625q0.765625 -0.703125 2.1875 -0.703125q0.921875 0 1.609375 0.296875q0.703125 0.3125 1.046875 0.9375q0.34375 0.625 0.34375 1.359375q0 0.921875 -0.46875 1.515625q-0.46875 0.59375 -1.328125 0.765625l-0.140625 -0.953125q0.5625 -0.125 0.84375 -0.46875q0.296875 -0.34375 0.296875 -0.828125q0 -0.71875 -0.53125 -1.1875q-0.515625 -0.453125 -1.640625 -0.453125q-1.15625 0 -1.671875 0.4375q-0.515625 0.4375 -0.515625 1.15625q0 0.5625 0.34375 0.9375q0.34375 0.390625 1.078125 0.5zm-2.09375 1.59375l7.875 0l0 0.96875l-2.828125 0q0.78125 0.6875 0.78125 1.71875q0 0.625 -0.25 1.09375q-0.25 0.46875 -0.6875 0.671875q-0.4375 0.203125 -1.28125 0.203125l-3.609375 0l0 -0.96875l3.609375 0q0.734375 0 1.0625 -0.3125q0.328125 -0.3125 0.328125 -0.890625q0 -0.4375 -0.21875 -0.8125q-0.21875 -0.375 -0.609375 -0.546875q-0.375 -0.15625 -1.046875 -0.15625l-3.125 0l0 -0.96875zm1.84375 9.832748l-0.125 1.0q-0.875 -0.234375 -1.359375 -0.875q-0.484375 -0.640625 -0.484375 -1.625q0 -1.25 0.765625 -1.984375q0.765625 -0.734375 2.15625 -0.734375q1.453125 0 2.234375 0.734375q0.796875 0.75 0.796875 1.921875q0 1.15625 -0.78125 1.875q-0.765625 0.71875 -2.1875 0.71875q-0.078125 0 -0.25 0l0 -4.25q-0.9375 0.046875 -1.4375 0.515625q-0.5 0.484375 -0.5 1.203125q0 0.53125 0.265625 0.90625q0.28125 0.375 0.90625 0.59375zm1.5625 -3.171875l0 3.1875q0.71875 -0.0625 1.078125 -0.359375q0.546875 -0.46875 0.546875 -1.203125q0 -0.671875 -0.453125 -1.125q-0.4375 -0.453125 -1.171875 -0.5zm-1.703125 4.8171234l0.15625 0.953125q-0.578125 0.078125 -0.890625 0.4375q-0.296875 0.375 -0.296875 1.03125q0 0.671875 0.265625 0.984375q0.265625 0.328125 0.640625 0.328125q0.328125 0 0.515625 -0.28125q0.125 -0.203125 0.328125 -0.984375q0.265625 -1.0625 0.453125 -1.484375q0.203125 -0.40625 0.546875 -0.625q0.34375 -0.203125 0.765625 -0.203125q0.390625 0 0.703125 0.171875q0.328125 0.171875 0.546875 0.484375q0.171875 0.21875 0.28125 0.609375q0.109375 0.390625 0.109375 0.828125q0 0.671875 -0.1875 1.171875q-0.1875 0.515625 -0.53125 0.75q-0.328125 0.25 -0.875 0.34375l-0.125 -0.9375q0.4375 -0.078125 0.671875 -0.390625q0.25 -0.296875 0.25 -0.859375q0 -0.671875 -0.21875 -0.953125q-0.21875 -0.28125 -0.515625 -0.28125q-0.1875 0 -0.328125 0.109375q-0.15625 0.125 -0.265625 0.375q-0.046875 0.140625 -0.25 0.859375q-0.265625 1.015625 -0.4375 1.421875q-0.171875 0.40625 -0.515625 0.640625q-0.328125 0.234375 -0.828125 0.234375q-0.484375 0 -0.90625 -0.28125q-0.421875 -0.28125 -0.65625 -0.8125q-0.234375 -0.53125 -0.234375 -1.203125q0 -1.109375 0.453125 -1.703125q0.46875 -0.578125 1.375 -0.734375zm-1.703125 12.038773l0 -0.96875l6.15625 0q-0.328125 -0.34375 -0.671875 -0.90625q-0.328125 -0.5625 -0.484375 -1.015625l0.9375 0q0.375 0.8125 0.90625 1.40625q0.546875 0.609375 1.0625 0.859375l0 0.625l-7.90625 0zm0 2.8327484l1.09375 0l0 1.09375l-1.09375 0l0 -1.09375zm0 2.9606476l1.09375 0l0 1.09375l-1.09375 0l0 -1.09375zm0 5.640045l5.703125 0l0 0.875l-0.8125 0q0.9375 0.625 0.9375 1.8125q0 0.515625 -0.1875 0.953125q-0.171875 0.4375 -0.484375 0.640625q-0.296875 0.21875 -0.703125 0.3125q-0.28125 0.046875 -0.953125 0.046875l-3.5 0l0 -0.96875l3.46875 0q0.59375 0 0.875 -0.109375q0.296875 -0.109375 0.46875 -0.40625q0.1875 -0.28125 0.1875 -0.671875q0 -0.609375 -0.390625 -1.0625q-0.390625 -0.453125 -1.5 -0.453125l-3.109375 0l0 -0.96875z" fill-rule="nonzero"></path><path fill="#9fc5e8" d="m464.13385 250.0621c62.13556 10.02002 62.13556 -10.020035 124.264404 -10.020035l0 -52.086l-124.264404 0zm10.2378845 -62.106033l0 -6.75264l123.41568 0l0 52.41275c-4.691223 0 -9.38916 0.36305237 -9.38916 0.36305237l0 -46.023163zm9.623047 -6.75264l0 -6.589264l124.48489 0l0 52.24939c-5.3461304 0 -10.692261 0.27227783 -10.692261 0.27227783l0 -45.932404z" fill-rule="nonzero"></path><path fill="#000000" fill-opacity="0.0" d="m464.13385 187.95607l124.264404 0l0 52.086c-62.128845 0 -62.128845 20.040054 -124.264404 10.020035zm10.2378845 0l0 -6.75264l123.41568 0l0 52.41275c-4.691223 0 -9.38916 0.36305237 -9.38916 0.36305237m-104.40347 -52.775803l0 -6.589264l124.48489 0l0 52.24939c-5.3461304 0 -10.692261 0.27227783 -10.692261 0.27227783" fill-rule="nonzero"></path><path stroke="#000000" stroke-width="2.0" stroke-linejoin="round" stroke-linecap="butt" d="m464.13385 187.95607l124.264404 0l0 52.086c-62.128845 0 -62.128845 20.040054 -124.264404 10.020035zm10.2378845 0l0 -6.75264l123.41568 0l0 52.41275c-4.691223 0 -9.38916 0.36305237 -9.38916 0.36305237m-104.40347 -52.775803l0 -6.589264l124.48489 0l0 52.24939c-5.3461304 0 -10.692261 0.27227783 -10.692261 0.27227783" fill-rule="nonzero"></path><path fill="#000000" fill-opacity="0.0" d="m464.13385 250.0621c62.13556 10.02002 62.13556 -10.020035 124.264404 -10.020035l0 -6.0628357c0 0 4.697937 -0.36305237 9.38916 -0.36305237l0 -6.4803467c0 0 5.3461304 -0.27227783 10.692261 -0.27227783l0 -52.24939l-124.48489 0l0 6.589264l-9.623047 0l0 6.75264l-10.2378845 0z" fill-rule="nonzero"></path><path fill="#000000" d="m485.1572 225.17316l0 -1.25q-0.9375 1.46875 -2.75 1.46875q-1.171875 0 -2.171875 -0.640625q-0.984375 -0.65625 -1.53125 -1.8125q-0.53125 -1.171875 -0.53125 -2.6875q0 -1.46875 0.484375 -2.671875q0.5 -1.203125 1.46875 -1.84375q0.984375 -0.640625 2.203125 -0.640625q0.890625 0 1.578125 0.375q0.703125 0.375 1.140625 0.984375l0 -4.875l1.65625 0l0 13.59375l-1.546875 0zm-5.28125 -4.921875q0 1.890625 0.796875 2.828125q0.8125 0.9375 1.890625 0.9375q1.09375 0 1.859375 -0.890625q0.765625 -0.890625 0.765625 -2.734375q0 -2.015625 -0.78125 -2.953125q-0.78125 -0.953125 -1.921875 -0.953125q-1.109375 0 -1.859375 0.90625q-0.75 0.90625 -0.75 2.859375zm16.016357 1.75l1.71875 0.21875q-0.40625 1.5 -1.515625 2.34375q-1.09375 0.828125 -2.8125 0.828125q-2.15625 0 -3.421875 -1.328125q-1.265625 -1.328125 -1.265625 -3.734375q0 -2.484375 1.265625 -3.859375q1.28125 -1.375 3.328125 -1.375q1.984375 0 3.234375 1.34375q1.25 1.34375 1.25 3.796875q0 0.140625 -0.015625 0.4375l-7.34375 0q0.09375 1.625 0.921875 2.484375q0.828125 0.859375 2.0625 0.859375q0.90625 0 1.546875 -0.46875q0.65625 -0.484375 1.046875 -1.546875zm-5.484375 -2.703125l5.5 0q-0.109375 -1.234375 -0.625 -1.859375q-0.796875 -0.96875 -2.078125 -0.96875q-1.140625 0 -1.9375 0.78125q-0.78125 0.765625 -0.859375 2.046875zm11.844452 5.875l-3.75 -9.859375l1.765625 0l2.125 5.90625q0.34375 0.953125 0.625 1.984375q0.21875 -0.78125 0.625 -1.875l2.1875 -6.015625l1.71875 0l-3.734375 9.859375l-1.5625 0zm13.34375 -3.171875l1.71875 0.21875q-0.40625 1.5 -1.515625 2.34375q-1.09375 0.828125 -2.8125 0.828125q-2.15625 0 -3.421875 -1.328125q-1.265625 -1.328125 -1.265625 -3.734375q0 -2.484375 1.265625 -3.859375q1.28125 -1.375 3.328125 -1.375q1.984375 0 3.234375 1.34375q1.25 1.34375 1.25 3.796875q0 0.140625 -0.015625 0.4375l-7.34375 0q0.09375 1.625 0.921875 2.484375q0.828125 0.859375 2.0625 0.859375q0.90625 0 1.546875 -0.46875q0.65625 -0.484375 1.046875 -1.546875zm-5.484375 -2.703125l5.5 0q-0.109375 -1.234375 -0.625 -1.859375q-0.796875 -0.96875 -2.078125 -0.96875q-1.140625 0 -1.9375 0.78125q-0.78125 0.765625 -0.859375 2.046875zm9.078857 5.875l0 -13.59375l1.671875 0l0 13.59375l-1.671875 0zm3.5510864 -4.921875q0 -2.734375 1.53125 -4.0625q1.265625 -1.09375 3.09375 -1.09375q2.03125 0 3.3125 1.34375q1.296875 1.328125 1.296875 3.671875q0 1.90625 -0.578125 3.0q-0.5625 1.078125 -1.65625 1.6875q-1.078125 0.59375 -2.375 0.59375q-2.0625 0 -3.34375 -1.328125q-1.28125 -1.328125 -1.28125 -3.8125zm1.71875 0q0 1.890625 0.828125 2.828125q0.828125 0.9375 2.078125 0.9375q1.25 0 2.0625 -0.9375q0.828125 -0.953125 0.828125 -2.890625q0 -1.828125 -0.828125 -2.765625q-0.828125 -0.9375 -2.0625 -0.9375q-1.25 0 -2.078125 0.9375q-0.828125 0.9375 -0.828125 2.828125zm9.281921 8.703125l0 -13.640625l1.53125 0l0 1.28125q0.53125 -0.75 1.203125 -1.125q0.6875 -0.375 1.640625 -0.375q1.265625 0 2.234375 0.65625q0.96875 0.640625 1.453125 1.828125q0.5 1.1875 0.5 2.59375q0 1.515625 -0.546875 2.734375q-0.546875 1.203125 -1.578125 1.84375q-1.03125 0.640625 -2.171875 0.640625q-0.84375 0 -1.515625 -0.34375q-0.65625 -0.359375 -1.078125 -0.890625l0 4.796875l-1.671875 0zm1.515625 -8.65625q0 1.90625 0.765625 2.8125q0.78125 0.90625 1.875 0.90625q1.109375 0 1.890625 -0.9375q0.796875 -0.9375 0.796875 -2.921875q0 -1.875 -0.78125 -2.8125q-0.765625 -0.9375 -1.84375 -0.9375q-1.0625 0 -1.890625 1.0q-0.8125 1.0 -0.8125 2.890625zm15.610107 1.703125l1.71875 0.21875q-0.40625 1.5 -1.515625 2.34375q-1.09375 0.828125 -2.8125 0.828125q-2.15625 0 -3.421875 -1.328125q-1.265625 -1.328125 -1.265625 -3.734375q0 -2.484375 1.265625 -3.859375q1.28125 -1.375 3.328125 -1.375q1.984375 0 3.234375 1.34375q1.25 1.34375 1.25 3.796875q0 0.140625 -0.015625 0.4375l-7.34375 0q0.09375 1.625 0.921875 2.484375q0.828125 0.859375 2.0625 0.859375q0.90625 0 1.546875 -0.46875q0.65625 -0.484375 1.046875 -1.546875zm-5.484375 -2.703125l5.5 0q-0.109375 -1.234375 -0.625 -1.859375q-0.796875 -0.96875 -2.078125 -0.96875q-1.140625 0 -1.9375 0.78125q-0.78125 0.765625 -0.859375 2.046875zm9.094482 5.875l0 -9.859375l1.5 0l0 1.5q0.578125 -1.046875 1.0625 -1.375q0.484375 -0.34375 1.078125 -0.34375q0.84375 0 1.71875 0.546875l-0.578125 1.546875q-0.609375 -0.359375 -1.234375 -0.359375q-0.546875 0 -0.984375 0.328125q-0.421875 0.328125 -0.609375 0.90625q-0.28125 0.890625 -0.28125 1.953125l0 5.15625l-1.671875 0zm10.958496 -3.59375l1.671875 -0.21875q0.28125 1.421875 0.96875 2.046875q0.703125 0.625 1.6875 0.625q1.1875 0 2.0 -0.8125q0.8125 -0.828125 0.8125 -2.03125q0 -1.140625 -0.765625 -1.890625q-0.75 -0.75 -1.90625 -0.75q-0.46875 0 -1.171875 0.1875l0.1875 -1.46875q0.15625 0.015625 0.265625 0.015625q1.0625 0 1.90625 -0.546875q0.859375 -0.5625 0.859375 -1.71875q0 -0.921875 -0.625 -1.515625q-0.609375 -0.609375 -1.59375 -0.609375q-0.96875 0 -1.625 0.609375q-0.640625 0.609375 -0.828125 1.84375l-1.671875 -0.296875q0.296875 -1.6875 1.375 -2.609375q1.09375 -0.921875 2.71875 -0.921875q1.109375 0 2.046875 0.484375q0.9375 0.46875 1.421875 1.296875q0.5 0.828125 0.5 1.75q0 0.890625 -0.46875 1.609375q-0.46875 0.71875 -1.40625 1.15625q1.21875 0.265625 1.875 1.15625q0.671875 0.875 0.671875 2.1875q0 1.78125 -1.296875 3.015625q-1.296875 1.234375 -3.28125 1.234375q-1.796875 0 -2.984375 -1.0625q-1.171875 -1.0625 -1.34375 -2.765625z" fill-rule="nonzero"></path><path fill="#000000" fill-opacity="0.0" d="m641.42456 149.66751l0 110.48819l-32.944885 0l0 -110.48819z" fill-rule="nonzero"></path><path fill="#000000" d="m621.4365 171.36707l7.875 0l0 2.953125q0 0.890625 -0.25 1.4375q-0.234375 0.546875 -0.734375 0.859375q-0.484375 0.3125 -1.03125 0.3125q-0.5 0 -0.953125 -0.28125q-0.4375 -0.265625 -0.71875 -0.828125q-0.203125 0.71875 -0.71875 1.09375q-0.5 0.390625 -1.1875 0.390625q-0.546875 0 -1.03125 -0.234375q-0.46875 -0.234375 -0.734375 -0.578125q-0.25 -0.34375 -0.390625 -0.859375q-0.125 -0.515625 -0.125 -1.265625l0 -3.0zm4.5625 1.03125l0 1.703125q0 0.703125 0.09375 1.0q0.125 0.390625 0.390625 0.59375q0.28125 0.203125 0.6875 0.203125q0.390625 0 0.6875 -0.1875q0.296875 -0.1875 0.40625 -0.546875q0.109375 -0.34375 0.109375 -1.1875l0 -1.578125l-2.375 0zm-3.640625 0l0 1.96875q0 0.5 0.046875 0.703125q0.0625 0.359375 0.203125 0.59375q0.15625 0.25 0.4375 0.40625q0.296875 0.15625 0.671875 0.15625q0.4375 0 0.765625 -0.234375q0.328125 -0.21875 0.453125 -0.625q0.140625 -0.390625 0.140625 -1.140625l0 -1.828125l-2.71875 0zm-0.921875 5.9826355l5.703125 0l0 0.859375l-0.859375 0q0.609375 0.34375 0.796875 0.625q0.1875 0.28125 0.1875 0.609375q0 0.5 -0.3125 1.0l-0.890625 -0.328125q0.203125 -0.359375 0.203125 -0.71875q0 -0.3125 -0.1875 -0.5625q-0.1875 -0.25 -0.53125 -0.359375q-0.515625 -0.15625 -1.125 -0.15625l-2.984375 0l0 -0.96875zm0.703125 7.2829895q-0.453125 -0.546875 -0.640625 -1.046875q-0.1875 -0.484375 -0.1875 -1.0625q0 -0.9375 0.453125 -1.453125q0.46875 -0.5 1.171875 -0.5q0.421875 0 0.765625 0.1875q0.34375 0.203125 0.546875 0.5q0.21875 0.3125 0.328125 0.703125q0.078125 0.28125 0.140625 0.859375q0.140625 1.171875 0.34375 1.71875q0.1875 0.015625 0.25 0.015625q0.59375 0 0.828125 -0.28125q0.328125 -0.359375 0.328125 -1.09375q0 -0.6875 -0.234375 -1.015625q-0.234375 -0.3125 -0.84375 -0.46875l0.125 -0.953125q0.609375 0.125 0.984375 0.421875q0.375 0.296875 0.5625 0.859375q0.203125 0.5625 0.203125 1.296875q0 0.734375 -0.171875 1.1875q-0.171875 0.453125 -0.4375 0.65625q-0.25 0.21875 -0.640625 0.3125q-0.25 0.046875 -0.90625 0.046875l-1.28125 0q-1.34375 0 -1.703125 0.0625q-0.359375 0.0625 -0.6875 0.25l0 -1.015625q0.296875 -0.15625 0.703125 -0.1875zm2.15625 -0.09375q-0.21875 -0.515625 -0.359375 -1.578125q-0.09375 -0.59375 -0.203125 -0.84375q-0.09375 -0.234375 -0.3125 -0.375q-0.203125 -0.140625 -0.453125 -0.140625q-0.390625 0 -0.65625 0.296875q-0.25 0.296875 -0.25 0.859375q0 0.5625 0.25 0.984375q0.25 0.4375 0.671875 0.65625q0.328125 0.140625 0.96875 0.140625l0.34375 0zm-2.859375 2.2858734l5.703125 0l0 0.875l-0.8125 0q0.9375 0.625 0.9375 1.8125q0 0.515625 -0.1875 0.953125q-0.171875 0.4375 -0.484375 0.640625q-0.296875 0.21875 -0.703125 0.3125q-0.28125 0.046875 -0.953125 0.046875l-3.5 0l0 -0.96875l3.46875 0q0.59375 0 0.875 -0.109375q0.296875 -0.109375 0.46875 -0.40625q0.1875 -0.28125 0.1875 -0.671875q0 -0.609375 -0.390625 -1.0625q-0.390625 -0.453125 -1.5 -0.453125l-3.109375 0l0 -0.96875zm2.09375 9.660873l-0.125 0.9375q-0.984375 -0.140625 -1.546875 -0.796875q-0.546875 -0.640625 -0.546875 -1.5625q0 -1.171875 0.765625 -1.890625q0.765625 -0.703125 2.1875 -0.703125q0.921875 0 1.609375 0.296875q0.703125 0.3125 1.046875 0.9375q0.34375 0.625 0.34375 1.359375q0 0.921875 -0.46875 1.515625q-0.46875 0.59375 -1.328125 0.765625l-0.140625 -0.953125q0.5625 -0.125 0.84375 -0.46875q0.296875 -0.34375 0.296875 -0.828125q0 -0.71875 -0.53125 -1.1875q-0.515625 -0.453125 -1.640625 -0.453125q-1.15625 0 -1.671875 0.4375q-0.515625 0.4375 -0.515625 1.15625q0 0.5625 0.34375 0.9375q0.34375 0.390625 1.078125 0.5zm-2.09375 1.59375l7.875 0l0 0.96875l-2.828125 0q0.78125 0.6875 0.78125 1.71875q0 0.625 -0.25 1.09375q-0.25 0.46875 -0.6875 0.671875q-0.4375 0.203125 -1.28125 0.203125l-3.609375 0l0 -0.96875l3.609375 0q0.734375 0 1.0625 -0.3125q0.328125 -0.3125 0.328125 -0.890625q0 -0.4375 -0.21875 -0.8125q-0.21875 -0.375 -0.609375 -0.546875q-0.375 -0.15625 -1.046875 -0.15625l-3.125 0l0 -0.96875zm1.84375 9.832748l-0.125 1.0q-0.875 -0.234375 -1.359375 -0.875q-0.484375 -0.640625 -0.484375 -1.625q0 -1.25 0.765625 -1.984375q0.765625 -0.734375 2.15625 -0.734375q1.453125 0 2.234375 0.734375q0.796875 0.75 0.796875 1.921875q0 1.15625 -0.78125 1.875q-0.765625 0.71875 -2.1875 0.71875q-0.078125 0 -0.25 0l0 -4.25q-0.9375 0.046875 -1.4375 0.515625q-0.5 0.484375 -0.5 1.203125q0 0.53125 0.265625 0.90625q0.28125 0.375 0.90625 0.59375zm1.5625 -3.171875l0 3.1875q0.71875 -0.0625 1.078125 -0.359375q0.546875 -0.46875 0.546875 -1.203125q0 -0.671875 -0.453125 -1.125q-0.4375 -0.453125 -1.171875 -0.5zm-1.703125 4.8171234l0.15625 0.953125q-0.578125 0.078125 -0.890625 0.4375q-0.296875 0.375 -0.296875 1.03125q0 0.671875 0.265625 0.984375q0.265625 0.328125 0.640625 0.328125q0.328125 0 0.515625 -0.28125q0.125 -0.203125 0.328125 -0.984375q0.265625 -1.0625 0.453125 -1.484375q0.203125 -0.40625 0.546875 -0.625q0.34375 -0.203125 0.765625 -0.203125q0.390625 0 0.703125 0.171875q0.328125 0.171875 0.546875 0.484375q0.171875 0.21875 0.28125 0.609375q0.109375 0.390625 0.109375 0.828125q0 0.671875 -0.1875 1.171875q-0.1875 0.515625 -0.53125 0.75q-0.328125 0.25 -0.875 0.34375l-0.125 -0.9375q0.4375 -0.078125 0.671875 -0.390625q0.25 -0.296875 0.25 -0.859375q0 -0.671875 -0.21875 -0.953125q-0.21875 -0.28125 -0.515625 -0.28125q-0.1875 0 -0.328125 0.109375q-0.15625 0.125 -0.265625 0.375q-0.046875 0.140625 -0.25 0.859375q-0.265625 1.015625 -0.4375 1.421875q-0.171875 0.40625 -0.515625 0.640625q-0.328125 0.234375 -0.828125 0.234375q-0.484375 0 -0.90625 -0.28125q-0.421875 -0.28125 -0.65625 -0.8125q-0.234375 -0.53125 -0.234375 -1.203125q0 -1.109375 0.453125 -1.703125q0.46875 -0.578125 1.375 -0.734375zm-1.703125 12.038773l0 -0.96875l6.15625 0q-0.328125 -0.34375 -0.671875 -0.90625q-0.328125 -0.5625 -0.484375 -1.015625l0.9375 0q0.375 0.8125 0.90625 1.40625q0.546875 0.609375 1.0625 0.859375l0 0.625l-7.90625 0zm0 2.8327484l1.09375 0l0 1.09375l-1.09375 0l0 -1.09375zm0 2.9606476l1.09375 0l0 1.09375l-1.09375 0l0 -1.09375zm0 5.640045l5.703125 0l0 0.875l-0.8125 0q0.9375 0.625 0.9375 1.8125q0 0.515625 -0.1875 0.953125q-0.171875 0.4375 -0.484375 0.640625q-0.296875 0.21875 -0.703125 0.3125q-0.28125 0.046875 -0.953125 0.046875l-3.5 0l0 -0.96875l3.46875 0q0.59375 0 0.875 -0.109375q0.296875 -0.109375 0.46875 -0.40625q0.1875 -0.28125 0.1875 -0.671875q0 -0.609375 -0.390625 -1.0625q-0.390625 -0.453125 -1.5 -0.453125l-3.109375 0l0 -0.96875z" fill-rule="nonzero"></path><path fill="#000000" fill-opacity="0.0" d="m91.8619 174.61417l148.40909 -124.71243" fill-rule="nonzero"></path><path stroke="#000000" stroke-width="2.0" stroke-linejoin="round" stroke-linecap="butt" d="m97.10932 170.2046l137.91425 -115.89331" fill-rule="evenodd"></path><path fill="#000000" stroke="#000000" stroke-width="2.0" stroke-linecap="butt" d="m97.10932 170.2046l0.2749405 -3.1688843l-3.2839584 5.6974487l6.1779175 -2.2536163z" fill-rule="evenodd"></path><path fill="#000000" stroke="#000000" stroke-width="2.0" stroke-linecap="butt" d="m235.02357 54.311295l-0.27494812 3.1688995l3.283966 -5.69746l-6.1779175 2.2536201z" fill-rule="evenodd"></path><path fill="#000000" fill-opacity="0.0" d="m546.23724 174.61417l-161.62042 -124.71243" fill-rule="nonzero"></path><path stroke="#000000" stroke-width="2.0" stroke-linejoin="round" stroke-linecap="butt" d="m540.8108 170.42691l-150.76749 -116.33791" fill-rule="evenodd"></path><path fill="#000000" stroke="#000000" stroke-width="2.0" stroke-linecap="butt" d="m540.8108 170.42691l-3.1547241 0.40663147l6.2664185 1.994461l-3.5183105 -5.5558014z" fill-rule="evenodd"></path><path fill="#000000" stroke="#000000" stroke-width="2.0" stroke-linecap="butt" d="m390.0433 54.088997l3.1546936 -0.40663528l-6.266388 -1.9944534l3.518341 5.555794z" fill-rule="evenodd"></path><path fill="#000000" fill-opacity="0.0" d="m319.04956 174.61417l-16.643036 -88.47332" fill-rule="nonzero"></path><path stroke="#000000" stroke-width="2.0" stroke-linejoin="round" stroke-linecap="butt" d="m317.7824 167.87814l-14.108734 -75.00127" fill-rule="evenodd"></path><path fill="#000000" stroke="#000000" stroke-width="2.0" stroke-linecap="butt" d="m317.7824 167.87814l-2.6261902 -1.7945862l3.3528137 5.6572113l1.0679932 -6.4888306z" fill-rule="evenodd"></path><path fill="#000000" stroke="#000000" stroke-width="2.0" stroke-linecap="butt" d="m303.67368 92.87688l2.6261902 1.7945938l-3.3528137 -5.6572113l-1.0679626 6.488823z" fill-rule="evenodd"></path><path fill="#000000" fill-opacity="0.0" d="m384.61682 10.692913l123.84253 0l0 29.417324l-123.84253 0z" fill-rule="nonzero"></path><path fill="#000000" d="m394.42932 28.917198l0 -7.875l2.953125 0q0.890625 0 1.4375 0.25q0.546875 0.234375 0.859375 0.734375q0.3125 0.484375 0.3125 1.03125q0 0.5 -0.28125 0.953125q-0.265625 0.4375 -0.828125 0.71875q0.71875 0.203125 1.09375 0.71875q0.390625 0.5 0.390625 1.1875q0 0.546875 -0.234375 1.03125q-0.234375 0.46875 -0.578125 0.734375q-0.34375 0.25 -0.859375 0.390625q-0.515625 0.125 -1.265625 0.125l-3.0 0zm1.03125 -4.5625l1.703125 0q0.703125 0 1.0 -0.09375q0.390625 -0.125 0.59375 -0.390625q0.203125 -0.28125 0.203125 -0.6875q0 -0.390625 -0.1875 -0.6875q-0.1875 -0.296875 -0.546875 -0.40625q-0.34375 -0.109375 -1.1875 -0.109375l-1.578125 0l0 2.375zm0 3.640625l1.96875 0q0.5 0 0.703125 -0.046875q0.359375 -0.0625 0.59375 -0.203125q0.25 -0.15625 0.40625 -0.4375q0.15625 -0.296875 0.15625 -0.671875q0 -0.4375 -0.234375 -0.765625q-0.21875 -0.328125 -0.625 -0.453125q-0.390625 -0.140625 -1.140625 -0.140625l-1.828125 0l0 2.71875zm5.9826355 0.921875l0 -5.703125l0.859375 0l0 0.859375q0.34375 -0.609375 0.625 -0.796875q0.28125 -0.1875 0.609375 -0.1875q0.5 0 1.0 0.3125l-0.328125 0.890625q-0.359375 -0.203125 -0.71875 -0.203125q-0.3125 0 -0.5625 0.1875q-0.25 0.1875 -0.359375 0.53125q-0.15625 0.515625 -0.15625 1.125l0 2.984375l-0.96875 0zm7.2829895 -0.703125q-0.546875 0.453125 -1.046875 0.640625q-0.484375 0.1875 -1.0625 0.1875q-0.9375 0 -1.453125 -0.453125q-0.5 -0.46875 -0.5 -1.171875q0 -0.421875 0.1875 -0.765625q0.203125 -0.34375 0.5 -0.546875q0.3125 -0.21875 0.703125 -0.328125q0.28125 -0.078125 0.859375 -0.140625q1.171875 -0.140625 1.71875 -0.34375q0.015625 -0.1875 0.015625 -0.25q0 -0.59375 -0.28125 -0.828125q-0.359375 -0.328125 -1.09375 -0.328125q-0.6875 0 -1.015625 0.234375q-0.3125 0.234375 -0.46875 0.84375l-0.953125 -0.125q0.125 -0.609375 0.421875 -0.984375q0.296875 -0.375 0.859375 -0.5625q0.5625 -0.203125 1.296875 -0.203125q0.734375 0 1.1875 0.171875q0.453125 0.171875 0.65625 0.4375q0.21875 0.25 0.3125 0.640625q0.046875 0.25 0.046875 0.90625l0 1.28125q0 1.34375 0.0625 1.703125q0.0625 0.359375 0.25 0.6875l-1.015625 0q-0.15625 -0.296875 -0.1875 -0.703125zm-0.09375 -2.15625q-0.515625 0.21875 -1.578125 0.359375q-0.59375 0.09375 -0.84375 0.203125q-0.234375 0.09375 -0.375 0.3125q-0.140625 0.203125 -0.140625 0.453125q0 0.390625 0.296875 0.65625q0.296875 0.25 0.859375 0.25q0.5625 0 0.984375 -0.25q0.4375 -0.25 0.65625 -0.671875q0.140625 -0.328125 0.140625 -0.96875l0 -0.34375zm2.2858887 2.859375l0 -5.703125l0.875 0l0 0.8125q0.625 -0.9375 1.8125 -0.9375q0.515625 0 0.953125 0.1875q0.4375 0.171875 0.640625 0.484375q0.21875 0.296875 0.3125 0.703125q0.046875 0.28125 0.046875 0.953125l0 3.5l-0.96875 0l0 -3.46875q0 -0.59375 -0.109375 -0.875q-0.109375 -0.296875 -0.40625 -0.46875q-0.28125 -0.1875 -0.671875 -0.1875q-0.609375 0 -1.0625 0.390625q-0.453125 0.390625 -0.453125 1.5l0 3.109375l-0.96875 0zm9.660858 -2.09375l0.9375 0.125q-0.140625 0.984375 -0.796875 1.546875q-0.640625 0.546875 -1.5625 0.546875q-1.171875 0 -1.890625 -0.765625q-0.703125 -0.765625 -0.703125 -2.1875q0 -0.921875 0.296875 -1.609375q0.3125 -0.703125 0.9375 -1.046875q0.625 -0.34375 1.359375 -0.34375q0.921875 0 1.515625 0.46875q0.59375 0.46875 0.765625 1.328125l-0.953125 0.140625q-0.125 -0.5625 -0.46875 -0.84375q-0.34375 -0.296875 -0.828125 -0.296875q-0.71875 0 -1.1875 0.53125q-0.453125 0.515625 -0.453125 1.640625q0 1.15625 0.4375 1.671875q0.4375 0.515625 1.15625 0.515625q0.5625 0 0.9375 -0.34375q0.390625 -0.34375 0.5 -1.078125zm1.59375 2.09375l0 -7.875l0.96875 0l0 2.828125q0.6875 -0.78125 1.71875 -0.78125q0.625 0 1.09375 0.25q0.46875 0.25 0.671875 0.6875q0.203125 0.4375 0.203125 1.28125l0 3.609375l-0.96875 0l0 -3.609375q0 -0.734375 -0.3125 -1.0625q-0.3125 -0.328125 -0.890625 -0.328125q-0.4375 0 -0.8125 0.21875q-0.375 0.21875 -0.546875 0.609375q-0.15625 0.375 -0.15625 1.046875l0 3.125l-0.96875 0zm9.832764 -1.84375l1.0 0.125q-0.234375 0.875 -0.875 1.359375q-0.640625 0.484375 -1.625 0.484375q-1.25 0 -1.984375 -0.765625q-0.734375 -0.765625 -0.734375 -2.15625q0 -1.453125 0.734375 -2.234375q0.75 -0.796875 1.921875 -0.796875q1.15625 0 1.875 0.78125q0.71875 0.765625 0.71875 2.1875q0 0.078125 0 0.25l-4.25 0q0.046875 0.9375 0.515625 1.4375q0.484375 0.5 1.203125 0.5q0.53125 0 0.90625 -0.265625q0.375 -0.28125 0.59375 -0.90625zm-3.171875 -1.5625l3.1875 0q-0.0625 -0.71875 -0.359375 -1.078125q-0.46875 -0.546875 -1.203125 -0.546875q-0.671875 0 -1.125 0.453125q-0.453125 0.4375 -0.5 1.171875zm4.817108 1.703125l0.953125 -0.15625q0.078125 0.578125 0.4375 0.890625q0.375 0.296875 1.03125 0.296875q0.671875 0 0.984375 -0.265625q0.328125 -0.265625 0.328125 -0.640625q0 -0.328125 -0.28125 -0.515625q-0.203125 -0.125 -0.984375 -0.328125q-1.0625 -0.265625 -1.484375 -0.453125q-0.40625 -0.203125 -0.625 -0.546875q-0.203125 -0.34375 -0.203125 -0.765625q0 -0.390625 0.171875 -0.703125q0.171875 -0.328125 0.484375 -0.546875q0.21875 -0.171875 0.609375 -0.28125q0.390625 -0.109375 0.828125 -0.109375q0.671875 0 1.171875 0.1875q0.515625 0.1875 0.75 0.53125q0.25 0.328125 0.34375 0.875l-0.9375 0.125q-0.078125 -0.4375 -0.390625 -0.671875q-0.296875 -0.25 -0.859375 -0.25q-0.671875 0 -0.953125 0.21875q-0.28125 0.21875 -0.28125 0.515625q0 0.1875 0.109375 0.328125q0.125 0.15625 0.375 0.265625q0.140625 0.046875 0.859375 0.25q1.015625 0.265625 1.421875 0.4375q0.40625 0.171875 0.640625 0.515625q0.234375 0.328125 0.234375 0.828125q0 0.484375 -0.28125 0.90625q-0.28125 0.421875 -0.8125 0.65625q-0.53125 0.234375 -1.203125 0.234375q-1.109375 0 -1.703125 -0.453125q-0.578125 -0.46875 -0.734375 -1.375zm12.038788 1.703125l-0.96875 0l0 -6.15625q-0.34375 0.328125 -0.90625 0.671875q-0.5625 0.328125 -1.015625 0.484375l0 -0.9375q0.8125 -0.375 1.40625 -0.90625q0.609375 -0.546875 0.859375 -1.0625l0.625 0l0 7.90625zm5.793396 0l0 -1.09375l1.09375 0l0 1.09375l-1.09375 0zm2.9606323 0l0 -1.09375l1.09375 0l0 1.09375l-1.09375 0zm5.640045 0l0 -5.703125l0.875 0l0 0.8125q0.625 -0.9375 1.8125 -0.9375q0.515625 0 0.953125 0.1875q0.4375 0.171875 0.640625 0.484375q0.21875 0.296875 0.3125 0.703125q0.046875 0.28125 0.046875 0.953125l0 3.5l-0.96875 0l0 -3.46875q0 -0.59375 -0.109375 -0.875q-0.109375 -0.296875 -0.40625 -0.46875q-0.28125 -0.1875 -0.671875 -0.1875q-0.609375 0 -1.0625 0.390625q-0.453125 0.390625 -0.453125 1.5l0 3.109375l-0.96875 0z" fill-rule="nonzero"></path></g></svg>

